<?xml version="1.0" encoding="UTF-8" standalone="no"?><!DOCTYPE svg PUBLIC "-//W3C//DTD SVG 1.1//EN" "http://www.w3.org/Graphics/SVG/1.1/DTD/svg11.dtd"><svg width="100%" height="100%" viewBox="0 0 1429 2354" version="1.1" xmlns="http://www.w3.org/2000/svg" xmlns:xlink="http://www.w3.org/1999/xlink" xml:space="preserve" xmlns:serif="http://www.serif.com/" style="fill-rule:evenodd;clip-rule:evenodd;stroke-linejoin:round;stroke-miterlimit:2;"><g><g id="SvgjsG50996"><g id="SvgjsG50997"><path d="M297.311,936.832l0,-586.425l415.937,-237.665l416.033,237.665l0,473.677l-416.033,237.717l-220.183,-125.837l0,-471.961l220.183,-125.824l220.267,125.824l-0,246.478l-220.267,125.837l-24.416,-13.951l0,-244.741l123.064,-70.357l-98.648,-56.348l-122.299,69.929l-0,358.293l122.299,69.917l318.15,-181.803l0,-360.029l-318.15,-181.745l-318.053,181.745l-0,585.512l318.053,181.803l513.904,-293.638l-0,-587.274l-513.904,-293.631l-513.82,293.631l-0,587.274l97.883,55.927Z" style="fill:#0164c1;fill-rule:nonzero;"/></g><g id="SvgjsG50998"><path d="M0,1574.51l0,13.698l42.611,-0l-0,478.291l-42.611,0l0,13.757l225.418,-0l0,-13.757l-41.911,0l0,-235.488l143.819,0l-0,235.488l-42.67,0l0,13.757l226.177,-0l-0,-13.757l-42.67,0l0,-478.291l42.67,-0l-0,-13.698l-226.177,-0l0,13.698l42.67,-0l-0,224.018l-143.819,0l0,-224.018l41.911,-0l0,-13.698l-225.418,-0Zm657.463,505.746l250.703,-0l-0,-13.757l-49.81,0l-0,-115.547l71.53,-0l-0,53.445l13.698,-0l0,-133.639l-13.698,0l-0,62.809l-71.53,-0l-0,-359.057l-125.034,-0l-203.698,362.685l0,13.757l195.799,-0l0,115.547l-67.96,0l0,13.757Zm-104.719,-146.689l172.679,-304.148l0,304.148l-172.679,-0Zm868.425,-359.057l-426.252,-0l-7.257,181.342l13.756,0c20.191,-62.16 38.749,-105.361 55.61,-129.712c16.853,-24.292 40.68,-36.468 71.53,-36.468l9.363,0l0,475.421l-61.402,-0l-0,15.163l263.759,-0l-0,-15.163l-61.461,-0l0,-475.421l8.664,0c30.843,0 54.436,11.709 70.824,35.062c16.387,23.36 35.178,67.085 56.367,131.118l13.698,0l-7.199,-181.342Z" style="fill:#070513;fill-rule:nonzero;"/></g></g></g><rect x="621.235" y="2345.72" width="98.191" height="7.439" style="fill:#fff;fill-opacity:0.01;"/></svg>