<?xml version="1.0" encoding="UTF-8" standalone="no"?><!DOCTYPE svg PUBLIC "-//W3C//DTD SVG 1.1//EN" "http://www.w3.org/Graphics/SVG/1.1/DTD/svg11.dtd"><svg width="100%" height="100%" viewBox="0 0 988 408" version="1.1" xmlns="http://www.w3.org/2000/svg" xmlns:xlink="http://www.w3.org/1999/xlink" xml:space="preserve" xmlns:serif="http://www.serif.com/" style="fill-rule:evenodd;clip-rule:evenodd;stroke-linejoin:round;stroke-miterlimit:2;"><g id="produkcja-horizontal"><g><path d="M491.177,116.121l-0,4.757l14.797,-0l0,166.085l-14.797,-0l-0,4.777l78.276,-0l0,-4.777l-14.553,-0l-0,-81.772l49.941,-0l0,81.772l-14.818,-0l0,4.777l78.541,-0l-0,-4.777l-14.818,-0l-0,-166.085l14.818,-0l-0,-4.757l-78.541,0l0,4.757l14.818,-0l0,77.788l-49.941,-0l-0,-77.788l14.553,-0l0,-4.757l-78.276,0Zm228.304,175.619l87.057,-0l0,-4.777l-17.298,-0l0,-40.124l24.839,-0l0,18.558l4.757,-0l0,-46.405l-4.757,-0l0,21.81l-24.839,0l0,-124.681l-43.416,0l-70.736,125.941l0,4.777l67.991,-0l0,40.124l-23.598,-0l-0,4.777Zm-36.364,-50.938l59.962,-105.615l0,105.615l-59.962,0Zm301.56,-124.681l-148.016,0l-2.52,62.97l4.778,0c7.01,-21.586 13.456,-36.587 19.308,-45.042c5.853,-8.436 14.126,-12.664 24.84,-12.664l3.252,0l-0,165.09l-21.324,-0l0,5.265l91.591,-0l-0,-5.265l-21.341,-0l-0,-165.09l3.006,0c10.714,0 18.903,4.066 24.596,12.176c5.69,8.11 12.215,23.294 19.573,45.53l4.757,0l-2.5,-62.97Z" style="fill:#070513;fill-rule:nonzero;"/></g><text x="484.451px" y="386.02px" style="font-family:'Roboto-Light', 'Roboto';font-weight:300;font-size:77.276px;fill:#c10164;">P<tspan x="539.835px 597.973px 657.696px 717.42px 776.992px 831.131px 888.401px 937.635px " y="386.02px 386.02px 386.02px 386.02px 386.02px 386.02px 386.02px 386.02px ">RODUKCJA</tspan></text><path d="M178.424,290.41c-0,0 -42.468,-22.934 -42.468,-22.934l-0,37.808l42.468,24.278l110.479,-63.133l0,-125.018l-110.479,-63.113l-110.444,63.113l0,203.318l110.444,63.132l178.452,-101.965l0,-203.932l-178.452,-101.964l-178.424,101.964l-0,203.932l33.99,19.419l0,-203.635l144.434,-82.529l144.469,82.529l0,164.485l-144.469,82.546l-76.459,-43.697l0,-163.891l76.459,-43.688l76.489,43.688l0,85.594l-76.489,43.693Z" style="fill:#0164c1;fill-rule:nonzero;"/><path d="M184.166,144.986c-3.81,-0.371 -7.646,-0.371 -11.455,-0c0.538,5.542 -1.896,8.983 -7.301,10.321c-5.351,1.544 -9.179,-0.219 -11.484,-5.288c-3.484,1.584 -6.806,3.502 -9.92,5.727c3.237,4.531 2.85,8.728 -1.163,12.589c-3.861,4.013 -8.058,4.401 -12.589,1.163c-2.225,3.114 -4.143,6.436 -5.727,9.92c5.069,2.305 6.832,6.133 5.287,11.484c-1.337,5.406 -4.778,7.839 -10.321,7.301c-0.37,3.809 -0.37,7.646 0,11.455c5.543,-0.539 8.984,1.895 10.321,7.301c1.545,5.351 -0.218,9.178 -5.287,11.483c1.584,3.485 3.502,6.807 5.727,9.921c4.531,-3.238 8.728,-2.85 12.589,1.162c4.013,3.862 4.4,8.058 1.163,12.589c3.114,2.225 6.436,4.144 9.92,5.728c2.305,-5.07 6.133,-6.832 11.484,-5.288c5.405,1.338 7.839,4.778 7.301,10.321c3.809,0.37 7.645,0.37 11.455,0c-0.539,-5.543 1.895,-8.983 7.301,-10.321c5.351,-1.544 9.178,0.218 11.483,5.288c3.484,-1.584 6.807,-3.503 9.921,-5.728c-3.238,-4.531 -2.851,-8.727 1.162,-12.589c3.862,-4.012 8.058,-4.4 12.589,-1.162c2.225,-3.114 4.144,-6.436 5.728,-9.921c-5.07,-2.305 -6.832,-6.132 -5.288,-11.483c1.338,-5.406 4.778,-7.84 10.321,-7.301c0.37,-3.809 0.37,-7.646 -0,-11.455c-5.543,0.538 -8.983,-1.895 -10.321,-7.301c-1.544,-5.351 0.218,-9.179 5.288,-11.484c-1.584,-3.484 -3.503,-6.806 -5.728,-9.92c-4.531,3.238 -8.727,2.85 -12.589,-1.163c-4.013,-3.861 -4.4,-8.058 -1.162,-12.589c-3.114,-2.225 -6.437,-4.143 -9.921,-5.727c-2.305,5.069 -6.132,6.832 -11.483,5.288c-5.406,-1.338 -7.84,-4.779 -7.301,-10.321Zm-5.728,39.226c10.883,0 19.718,8.836 19.718,19.718c0,10.883 -8.835,19.718 -19.718,19.718c-10.883,0 -19.718,-8.835 -19.718,-19.718c0,-10.882 8.835,-19.718 19.718,-19.718Z" style="fill:#c10164;"/></g></svg>