<?xml version="1.0" encoding="UTF-8" standalone="no"?><!DOCTYPE svg PUBLIC "-//W3C//DTD SVG 1.1//EN" "http://www.w3.org/Graphics/SVG/1.1/DTD/svg11.dtd"><svg width="100%" height="100%" viewBox="0 0 2731 1129" version="1.1" xmlns="http://www.w3.org/2000/svg" xmlns:xlink="http://www.w3.org/1999/xlink" xml:space="preserve" xmlns:serif="http://www.serif.com/" style="fill-rule:evenodd;clip-rule:evenodd;stroke-linejoin:round;stroke-miterlimit:2;"><g><path d="M1358.79,321.237l0,13.159l40.936,-0l-0,459.458l-40.936,-0l0,13.214l216.544,0l-0,-13.214l-40.262,-0l0,-226.215l138.159,0l-0,226.215l-40.993,-0l-0,13.214l217.275,0l-0,-13.214l-40.992,-0l-0,-459.458l40.992,-0l-0,-13.159l-217.275,0l-0,13.159l40.993,-0l-0,215.193l-138.159,-0l0,-215.193l40.262,-0l-0,-13.159l-216.544,0Zm631.58,485.831l240.835,0l0,-13.214l-47.853,-0l0,-110.999l68.715,0l0,51.339l13.16,-0l-0,-128.375l-13.16,0l0,60.336l-68.715,0l0,-344.918l-120.107,0l-195.683,348.404l0,13.214l188.091,0l-0,110.999l-65.283,-0l0,13.214Zm-100.596,-140.913l165.879,-292.173l-0,292.173l-165.879,0Zm834.235,-344.918l-409.471,0l-6.973,174.201l13.218,0c19.394,-59.716 37.225,-101.214 53.415,-124.606c16.192,-23.335 39.078,-35.031 68.716,-35.031l8.996,-0l0,456.703l-58.988,0l-0,14.564l253.375,0l-0,-14.564l-59.038,0l0,-456.703l8.317,-0c29.638,-0 52.293,11.246 68.043,33.682c15.741,22.436 33.792,64.44 54.145,125.955l13.16,0l-6.915,-174.201Z" style="fill:#070513;fill-rule:nonzero;"/><g><path d="M1689.59,925.053l-48.023,0l0,131.094l-11.521,0l-0,-131.094l-49.669,0l0,-9.875l109.213,-0l-0,9.875Z" style="fill:#64c101;fill-rule:nonzero;"/><path d="M1743.4,992.44l-0,63.707l-11.618,0l-0,-140.872l46.957,-0c15.104,-0 26.69,3.308 34.758,9.924c8.069,6.616 12.103,16.281 12.103,28.997c-0,7.487 -2.146,14.184 -6.439,20.09c-4.292,5.906 -10.376,10.215 -18.25,12.926c8.713,2.194 14.991,6.115 18.831,11.763c3.841,5.648 5.761,12.732 5.761,21.252l-0,13.264c-0,4.389 0.516,8.327 1.549,11.812c1.033,3.486 2.743,6.326 5.131,8.52l0,2.324l-11.812,0c-2.388,-2.324 -4.066,-5.583 -5.034,-9.779c-0.968,-4.195 -1.452,-8.552 -1.452,-13.07l-0,-12.877c-0,-8.65 -2.792,-15.475 -8.375,-20.478c-5.584,-5.002 -13.378,-7.503 -23.382,-7.503l-38.728,-0Zm-0,-9.876l33.984,0c12.715,0 22.01,-2.566 27.884,-7.697c5.873,-5.131 8.81,-12.054 8.81,-20.768c0,-9.294 -2.921,-16.443 -8.762,-21.445c-5.841,-5.003 -14.7,-7.504 -26.577,-7.504l-35.339,0l-0,57.414Z" style="fill:#64c101;fill-rule:nonzero;"/><path d="M1955.03,1016.84l-61.868,0l-14.232,39.309l-12.006,0l51.799,-140.969l10.94,-0l51.411,140.969l-12.005,0l-14.039,-39.309Zm-58.188,-10.359l54.412,-0l-26.722,-74.745l-0.581,-0l-27.109,74.745Z" style="fill:#64c101;fill-rule:nonzero;"/><path d="M2022.69,1056.15l-0,-140.969l42.987,-0c17.234,-0 31.483,5.744 42.746,17.234c11.264,11.489 16.895,26.238 16.895,44.246l0,18.105c0,18.009 -5.631,32.742 -16.895,44.199c-11.263,11.457 -25.512,17.185 -42.746,17.185l-42.987,0Zm11.618,-131.094l-0,121.315l31.369,0c13.942,0 25.432,-4.873 34.468,-14.62c9.037,-9.746 13.555,-22.074 13.555,-36.985l-0,-18.395c-0,-14.717 -4.535,-26.948 -13.603,-36.695c-9.069,-9.746 -20.542,-14.62 -34.42,-14.62l-31.369,0Z" style="fill:#64c101;fill-rule:nonzero;"/><rect x="2178.93" y="915.178" width="11.618" height="140.969" style="fill:#64c101;fill-rule:nonzero;"/><path d="M2353.29,1056.15l-11.618,0l-80.07,-120.637l-0.581,0.097l0,120.54l-11.618,0l0,-140.969l11.618,-0l80.07,120.346l0.581,-0.096l0,-120.25l11.618,-0l0,140.969Z" style="fill:#64c101;fill-rule:nonzero;"/><path d="M2509.34,1037.17c-3.098,5.1 -8.827,9.876 -17.185,14.33c-8.359,4.453 -18.896,6.68 -31.612,6.68c-16.201,0 -29.465,-5.583 -39.793,-16.75c-10.327,-11.166 -15.491,-25.624 -15.491,-43.375l0,-25.851c0,-17.427 5.002,-31.627 15.007,-42.6c10.005,-10.973 22.946,-16.459 38.825,-16.459c15.297,-0 27.448,4.034 36.452,12.102c9.005,8.068 13.378,18.331 13.119,30.789l-0.29,0.581l-10.65,-0c-0,-9.747 -3.357,-17.783 -10.069,-24.109c-6.713,-6.325 -16.234,-9.488 -28.562,-9.488c-12.651,0 -22.85,4.583 -30.595,13.749c-7.746,9.165 -11.619,20.913 -11.619,35.242l0,26.044c0,14.717 4.035,26.787 12.103,36.211c8.068,9.424 18.589,14.135 31.563,14.135c9.876,0 17.944,-1.484 24.205,-4.453c6.261,-2.969 10.618,-6.423 13.071,-10.36l-0,-36.114l-37.954,0l0,-9.875l49.475,-0l0,49.571Z" style="fill:#64c101;fill-rule:nonzero;"/></g><g><path d="M493.591,803.391l-117.484,-63.446l0,104.592l117.484,67.163l305.631,-174.651l-0,-345.849l-305.631,-174.596l-305.53,174.596l-0,562.457l305.53,174.649l493.672,-282.076l0,-564.158l-493.672,-282.072l-493.591,282.072l-0,564.158l94.031,53.72l0,-563.333l399.56,-228.308l399.661,228.308l0,455.03l-399.661,228.356l-211.514,-120.884l0,-453.388l211.514,-120.859l211.601,120.859l0,236.787l-211.601,120.873Z" style="fill:#0164c1;fill-rule:nonzero;"/><path d="M448.295,461.224l-45.761,-45.762l194.256,-5.171l-53.451,145.977l-45.762,-45.762l-150.227,91.667l-49.282,-49.282l150.227,-91.667Z" style="fill:#64c101;"/><path d="M526.734,666.008l44.638,46.859l-194.325,0.454l56.979,-144.637l44.637,46.86l152.408,-87.993l48.071,50.464l-152.408,87.993Z" style="fill:#64c101;"/></g></g></svg>