<?xml version="1.0" encoding="UTF-8" standalone="no"?><!DOCTYPE svg PUBLIC "-//W3C//DTD SVG 1.1//EN" "http://www.w3.org/Graphics/SVG/1.1/DTD/svg11.dtd"><svg width="100%" height="100%" viewBox="0 0 2731 1129" version="1.1" xmlns="http://www.w3.org/2000/svg" xmlns:xlink="http://www.w3.org/1999/xlink" xml:space="preserve" xmlns:serif="http://www.serif.com/" style="fill-rule:evenodd;clip-rule:evenodd;stroke-linejoin:round;stroke-miterlimit:2;"><g><g><path d="M94.031,899.95l0,-563.333l399.56,-228.308l399.661,228.308l0,455.03l-399.661,228.356l-211.514,-120.884l0,-453.388l211.514,-120.859l211.601,120.859l0,236.787l-211.601,120.873l-23.454,-13.397l-0,-235.107l118.219,-67.579l-94.765,-54.141l-117.484,67.175l0,344.195l117.484,67.163l305.631,-174.651l-0,-345.849l-305.631,-174.596l-305.53,174.596l-0,562.457l305.53,174.649l493.672,-282.076l0,-564.158l-493.672,-282.072l-493.591,282.072l-0,564.158l94.031,53.72Z" style="fill:#0164c1;fill-rule:nonzero;"/><path d="M1358.79,321.237l0,13.159l40.936,-0l-0,459.458l-40.936,-0l0,13.214l216.544,0l-0,-13.214l-40.262,-0l0,-226.215l138.159,0l-0,226.215l-40.993,-0l-0,13.214l217.275,0l-0,-13.214l-40.992,-0l-0,-459.458l40.992,-0l-0,-13.159l-217.275,0l-0,13.159l40.993,-0l-0,215.193l-138.159,-0l0,-215.193l40.262,-0l-0,-13.159l-216.544,0Zm631.58,485.831l240.835,0l0,-13.214l-47.853,-0l0,-110.999l68.715,0l0,51.339l13.16,-0l-0,-128.375l-13.16,0l0,60.336l-68.715,0l0,-344.918l-120.107,0l-195.683,348.404l0,13.214l188.091,0l-0,110.999l-65.283,-0l0,13.214Zm-100.596,-140.913l165.879,-292.173l-0,292.173l-165.879,0Zm834.235,-344.918l-409.471,0l-6.973,174.201l13.218,0c19.394,-59.716 37.225,-101.214 53.415,-124.606c16.192,-23.335 39.078,-35.031 68.716,-35.031l8.996,-0l0,456.703l-58.988,0l-0,14.564l253.375,0l-0,-14.564l-59.038,0l0,-456.703l8.317,-0c29.638,-0 52.293,11.246 68.043,33.682c15.741,22.436 33.792,64.44 54.145,125.955l13.16,0l-6.915,-174.201Z" style="fill:#070513;fill-rule:nonzero;"/></g></g></svg>