<?xml version="1.0" encoding="UTF-8" standalone="no"?><!DOCTYPE svg PUBLIC "-//W3C//DTD SVG 1.1//EN" "http://www.w3.org/Graphics/SVG/1.1/DTD/svg11.dtd"><svg width="100%" height="100%" viewBox="0 0 886 1461" version="1.1" xmlns="http://www.w3.org/2000/svg" xmlns:xlink="http://www.w3.org/1999/xlink" xml:space="preserve" xmlns:serif="http://www.serif.com/" style="fill-rule:evenodd;clip-rule:evenodd;stroke-linejoin:round;stroke-miterlimit:2;"><path d="M0,977.472l0,8.494l26.425,0l0,296.595l-26.425,-0l0,8.53l139.785,0l0,-8.53l-25.989,-0l-0,-146.029l89.185,0l-0,146.029l-26.462,-0l0,8.53l140.257,0l0,-8.53l-26.461,-0l0,-296.595l26.461,0l0,-8.494l-140.257,0l0,8.494l26.462,0l-0,138.914l-89.185,0l-0,-138.914l25.989,0l0,-8.494l-139.785,0Zm407.705,313.619l155.466,0l0,-8.53l-30.89,-0l-0,-71.653l44.357,-0l0,33.14l8.495,0l-0,-82.869l-8.495,-0l0,38.948l-44.357,0l-0,-222.655l-77.534,0l-126.319,224.906l0,8.53l121.418,-0l0,71.653l-42.141,-0l-0,8.53Zm-64.938,-90.964l107.079,-188.607l0,188.607l-107.079,0Zm538.524,-222.655l-264.326,0l-4.501,112.452l8.532,0c12.52,-38.548 24.03,-65.337 34.481,-80.437c10.453,-15.063 25.226,-22.614 44.359,-22.614l5.807,0l0,294.817l-38.079,-0l0,9.401l163.561,0l0,-9.401l-38.11,-0l0,-294.817l5.368,0c19.133,0 33.758,7.26 43.924,21.743c10.162,14.483 21.814,41.598 34.953,81.308l8.495,0l-4.464,-112.452Z" style="fill:#070513;fill-rule:nonzero;"/><g><path d="M182.947,1368.22l-33.422,-0l0,91.236l-8.018,0l-0,-91.236l-34.568,-0l0,-6.873l76.008,-0l0,6.873Z" style="fill:#64c101;fill-rule:nonzero;"/><path d="M220.399,1415.12l-0,44.338l-8.086,0l-0,-98.042l32.68,0c10.512,0 18.576,2.302 24.191,6.907c5.615,4.604 8.423,11.331 8.423,20.181c-0,5.211 -1.494,9.871 -4.481,13.982c-2.988,4.11 -7.222,7.109 -12.702,8.995c6.064,1.528 10.433,4.257 13.106,8.187c2.673,3.931 4.009,8.861 4.009,14.791l0,9.231c0,3.055 0.36,5.795 1.078,8.221c0.719,2.426 1.91,4.402 3.572,5.93l-0,1.617l-8.221,0c-1.662,-1.617 -2.83,-3.886 -3.504,-6.806c-0.674,-2.92 -1.011,-5.952 -1.011,-9.096l0,-8.962c0,-6.02 -1.943,-10.77 -5.828,-14.252c-3.886,-3.481 -9.31,-5.222 -16.273,-5.222l-26.953,0Zm-0,-6.873l23.651,0c8.85,0 15.318,-1.786 19.406,-5.357c4.088,-3.571 6.132,-8.389 6.132,-14.453c0,-6.469 -2.033,-11.444 -6.098,-14.926c-4.066,-3.481 -10.231,-5.222 -18.497,-5.222l-24.594,0l-0,39.958Z" style="fill:#64c101;fill-rule:nonzero;"/><path d="M367.684,1432.1l-43.058,-0l-9.905,27.357l-8.355,0l36.049,-98.109l7.615,-0l35.78,98.109l-8.356,0l-9.77,-27.357Zm-40.497,-7.21l37.869,-0l-18.598,-52.02l-0.404,0l-18.867,52.02Z" style="fill:#64c101;fill-rule:nonzero;"/><path d="M414.771,1459.46l0,-98.109l29.918,-0c11.994,-0 21.911,3.998 29.75,11.994c7.838,7.996 11.758,18.261 11.758,30.794l-0,12.6c-0,12.534 -3.92,22.787 -11.758,30.761c-7.839,7.973 -17.756,11.96 -29.75,11.96l-29.918,0Zm8.086,-91.236l0,84.43l21.832,0c9.703,0 17.699,-3.391 23.988,-10.174c6.289,-6.784 9.434,-15.364 9.434,-25.741l-0,-12.802c-0,-10.243 -3.156,-18.755 -9.467,-25.539c-6.312,-6.783 -14.297,-10.174 -23.955,-10.174l-21.832,-0Z" style="fill:#64c101;fill-rule:nonzero;"/><rect x="523.513" y="1361.35" width="8.086" height="98.109" style="fill:#64c101;fill-rule:nonzero;"/><path d="M644.856,1459.46l-8.086,0l-55.725,-83.959l-0.404,0.067l-0,83.892l-8.086,0l-0,-98.109l8.086,-0l55.725,83.756l0.404,-0.067l0,-83.689l8.086,-0l0,98.109Z" style="fill:#64c101;fill-rule:nonzero;"/><path d="M753.464,1446.25c-2.156,3.549 -6.143,6.873 -11.96,9.973c-5.818,3.099 -13.151,4.649 -22.001,4.649c-11.275,0 -20.507,-3.886 -27.694,-11.657c-7.188,-7.772 -10.781,-17.834 -10.781,-30.188l-0,-17.991c-0,-12.129 3.481,-22.012 10.444,-29.648c6.963,-7.637 15.97,-11.455 27.02,-11.455c10.647,-0 19.103,2.807 25.37,8.422c6.267,5.616 9.31,12.758 9.13,21.428l-0.202,0.404l-7.412,0c0,-6.783 -2.336,-12.375 -7.008,-16.778c-4.672,-4.402 -11.298,-6.603 -19.878,-6.603c-8.804,-0 -15.902,3.189 -21.293,9.568c-5.39,6.379 -8.086,14.555 -8.086,24.527l0,18.126c0,10.243 2.808,18.643 8.423,25.201c5.616,6.559 12.938,9.838 21.967,9.838c6.873,0 12.488,-1.033 16.846,-3.099c4.357,-2.067 7.389,-4.47 9.096,-7.21l0,-25.134l-26.414,0l0,-6.873l34.433,-0l0,34.5Z" style="fill:#64c101;fill-rule:nonzero;"/></g><g><path d="M442.074,518.614l-75.84,-40.956l0,67.517l75.84,43.355l197.294,-112.742l-0,-223.256l-197.294,-112.708l-197.23,112.708l0,363.083l197.23,112.742l318.68,-182.089l0,-364.182l-318.68,-182.086l-318.629,182.086l0,364.182l60.7,34.678l0,-363.649l257.929,-147.38l257.993,147.38l0,293.735l-257.993,147.411l-136.539,-78.034l-0,-292.675l136.539,-78.019l136.595,78.019l-0,152.852l-136.595,78.028Z" style="fill:#0164c1;fill-rule:nonzero;"/><path d="M412.834,297.734l-29.541,-29.54l125.399,-3.339l-34.504,94.233l-29.541,-29.541l-96.976,59.174l-31.813,-31.813l96.976,-59.174Z" style="fill:#64c101;"/><path d="M463.469,429.929l28.815,30.249l-125.443,0.293l36.781,-93.368l28.815,30.25l98.384,-56.803l31.032,32.576l-98.384,56.803Z" style="fill:#64c101;"/></g></svg>