<?xml version="1.0" encoding="UTF-8" standalone="no"?><!DOCTYPE svg PUBLIC "-//W3C//DTD SVG 1.1//EN" "http://www.w3.org/Graphics/SVG/1.1/DTD/svg11.dtd"><svg width="100%" height="100%" viewBox="0 0 1427 2354" version="1.1" xmlns="http://www.w3.org/2000/svg" xmlns:xlink="http://www.w3.org/1999/xlink" xml:space="preserve" xmlns:serif="http://www.serif.com/" style="fill-rule:evenodd;clip-rule:evenodd;stroke-linejoin:round;stroke-miterlimit:2;"><path d="M0,1574.51l0,13.682l42.565,-0l0,477.752l-42.565,0l0,13.741l225.166,0l-0,-13.741l-41.865,0l0,-235.222l143.66,0l-0,235.222l-42.625,0l-0,13.741l225.926,0l-0,-13.741l-42.624,0l-0,-477.752l42.624,-0l-0,-13.682l-225.926,-0l-0,13.682l42.625,-0l-0,223.761l-143.66,0l0,-223.761l41.865,-0l-0,-13.682l-225.166,-0Zm656.728,505.175l250.425,0l-0,-13.741l-49.759,0l0,-115.418l71.451,0l0,53.383l13.684,-0l-0,-133.486l-13.684,-0l0,62.738l-71.451,-0l0,-358.651l-124.889,-0l-203.475,362.276l-0,13.74l195.58,0l0,115.418l-67.882,0l0,13.741Zm-104.602,-146.524l172.484,-303.807l0,303.807l-172.484,-0Zm867.453,-358.651l-425.775,-0l-7.251,181.137l13.744,-0c20.166,-62.094 38.707,-105.245 55.542,-129.568c16.836,-24.264 40.634,-36.426 71.452,-36.426l9.355,-0l-0,474.888l-61.338,0l0,15.144l263.464,0l0,-15.144l-61.388,0l0,-474.888l8.648,-0c30.818,-0 54.375,11.694 70.752,35.023c16.367,23.329 35.137,67.006 56.301,130.971l13.684,-0l-7.19,-181.137Z" style="fill:#070513;fill-rule:nonzero;"/><g><path d="M294.69,2203.92l-53.835,0l-0,146.963l-12.917,0l0,-146.963l-55.681,0l0,-11.071l122.433,0l0,11.071Z" style="fill:#64c101;fill-rule:nonzero;"/><path d="M355.017,2279.46l-0,71.419l-13.025,0l0,-157.925l52.642,-0c16.932,-0 29.921,3.708 38.966,11.125c9.045,7.417 13.567,18.253 13.567,32.508c0,8.394 -2.406,15.901 -7.218,22.522c-4.812,6.621 -11.632,11.451 -20.459,14.49c9.768,2.46 16.805,6.856 21.111,13.188c4.305,6.331 6.458,14.273 6.458,23.824l-0,14.87c-0,4.921 0.579,9.335 1.736,13.242c1.158,3.907 3.076,7.091 5.753,9.552l-0,2.604l-13.242,0c-2.677,-2.604 -4.559,-6.259 -5.644,-10.962c-1.085,-4.703 -1.628,-9.588 -1.628,-14.653l-0,-14.436c-0,-9.696 -3.13,-17.348 -9.389,-22.956c-6.259,-5.608 -14.996,-8.412 -26.212,-8.412l-43.416,0Zm-0,-11.071l38.097,0c14.255,0 24.675,-2.876 31.26,-8.629c6.585,-5.752 9.877,-13.513 9.877,-23.282c-0,-10.419 -3.274,-18.433 -9.823,-24.041c-6.548,-5.608 -16.48,-8.412 -29.794,-8.412l-39.617,0l-0,64.364Z" style="fill:#64c101;fill-rule:nonzero;"/><path d="M592.263,2306.82l-69.357,0l-15.955,44.067l-13.459,0l58.069,-158.034l12.265,0l57.634,158.034l-13.458,0l-15.739,-44.067Zm-65.232,-11.613l60.999,-0l-29.957,-83.793l-0.651,-0l-30.391,83.793Z" style="fill:#64c101;fill-rule:nonzero;"/><path d="M668.111,2350.88l-0,-158.034l48.192,0c19.32,0 35.293,6.44 47.92,19.321c12.627,12.88 18.94,29.414 18.94,49.602l0,20.297c0,20.189 -6.313,36.705 -18.94,49.549c-12.627,12.844 -28.6,19.265 -47.92,19.265l-48.192,0Zm13.025,-146.963l-0,136.001l35.167,-0c15.629,-0 28.509,-5.463 38.64,-16.39c10.13,-10.926 15.195,-24.747 15.195,-41.462l0,-20.622c0,-16.498 -5.083,-30.211 -15.249,-41.137c-10.167,-10.926 -23.029,-16.39 -38.586,-16.39l-35.167,0Z" style="fill:#64c101;fill-rule:nonzero;"/><rect x="843.273" y="2192.85" width="13.025" height="158.034" style="fill:#64c101;fill-rule:nonzero;"/><path d="M1038.73,2350.88l-13.025,0l-89.762,-135.24l-0.651,0.108l-0,135.132l-13.025,0l-0,-158.034l13.025,0l89.762,134.915l0.651,-0.108l0,-134.807l13.025,0l0,158.034Z" style="fill:#64c101;fill-rule:nonzero;"/><path d="M1213.68,2329.61c-3.474,5.716 -9.896,11.071 -19.266,16.064c-9.371,4.992 -21.184,7.489 -35.438,7.489c-18.163,-0 -33.033,-6.259 -44.61,-18.778c-11.578,-12.518 -17.367,-28.726 -17.367,-48.625l0,-28.981c0,-19.537 5.608,-35.456 16.824,-47.757c11.216,-12.301 25.724,-18.452 43.524,-18.452c17.15,0 30.771,4.523 40.866,13.568c10.094,9.045 14.996,20.55 14.707,34.515l-0.326,0.651l-11.939,0c-0,-10.926 -3.763,-19.935 -11.288,-27.026c-7.526,-7.091 -18.199,-10.637 -32.02,-10.637c-14.182,0 -25.615,5.138 -34.298,15.413c-8.683,10.275 -13.025,23.444 -13.025,39.508l0,29.198c0,16.498 4.523,30.029 13.568,40.593c9.045,10.565 20.839,15.847 35.384,15.847c11.071,0 20.116,-1.664 27.134,-4.993c7.019,-3.328 11.904,-7.199 14.653,-11.613l0,-40.486l-42.547,0l-0,-11.071l55.464,0l-0,55.573Z" style="fill:#64c101;fill-rule:nonzero;"/></g><g><path d="M712.09,835.38l-122.162,-65.972l0,108.757l122.162,69.837l317.8,-181.605l0,-359.62l-317.8,-181.549l-317.696,181.549l-0,584.853l317.696,181.603l513.329,-293.308l-0,-586.621l-513.329,-293.304l-513.245,293.304l0,586.621l97.775,55.859l0,-585.764l415.47,-237.399l415.575,237.399l-0,473.148l-415.575,237.449l-219.936,-125.697l-0,-471.44l219.936,-125.672l220.027,125.672l-0,246.214l-220.027,125.686Z" style="fill:#0164c1;fill-rule:nonzero;"/><path d="M664.991,479.589l-47.584,-47.584l201.991,-5.378l-55.579,151.79l-47.584,-47.584l-156.209,95.317l-51.244,-51.244l156.209,-95.317Z" style="fill:#64c101;"/><path d="M746.553,692.526l46.414,48.726l-202.062,0.472l59.248,-150.396l46.415,48.725l158.476,-91.496l49.985,52.473l-158.476,91.496Z" style="fill:#64c101;"/></g></svg>