<svg width="162" height="65" viewBox="0 0 162 65" fill="none" xmlns="http://www.w3.org/2000/svg">
<path d="M5.41901 51.7162V19.3524L28.4459 6.23574L51.4785 19.3524V45.4942L28.4459 58.6133L16.2562 51.6684V25.6215L28.4459 18.6774L40.6405 25.6215V39.2243L28.4459 46.1691L27.0942 45.3994V31.8921L33.9072 28.0093L28.4459 24.8995L21.6752 28.7588V48.5327L28.4459 52.3912L46.0595 42.3576V22.4881L28.4459 12.4578L10.838 22.4881V54.8017L28.4459 64.8353L56.8967 48.6299V16.2191L28.4459 0.0136719L0 16.2191V48.6299L5.41901 51.7162Z" fill="#0164C1"/>
<path d="M82.0801 18.0312V18.7872H84.4392V45.1834H82.0801V45.9426H94.5596V45.1834H92.2394V32.1872H100.202V45.1834H97.8391V45.9426H110.361V45.1834H107.998V18.7872H110.361V18.0312H97.8391V18.7872H100.202V31.1502H92.2394V18.7872H94.5596V18.0312H82.0801ZM118.479 45.9426H132.358V45.1834H129.6V38.8064H133.56V41.7559H134.319V34.3807H133.56V37.847H129.6V18.0312H122.678L111.401 38.0473V38.8064H122.241V45.1834H118.479V45.9426ZM112.681 37.847L122.241 21.0614V37.847H112.681ZM160.759 18.0312H137.161L136.759 28.0393H137.52C138.638 24.6085 139.666 22.2244 140.599 20.8805C141.532 19.5399 142.851 18.8679 144.559 18.8679H145.077V45.1059H141.678V45.9426H156.28V45.1059H152.877V18.8679H153.357C155.065 18.8679 156.371 19.514 157.278 20.803C158.186 22.092 159.226 24.5051 160.399 28.0393H161.157L160.759 18.0312Z" fill="#070513"/>
</svg>
