<?xml version="1.0" encoding="UTF-8" standalone="no"?><!DOCTYPE svg PUBLIC "-//W3C//DTD SVG 1.1//EN" "http://www.w3.org/Graphics/SVG/1.1/DTD/svg11.dtd"><svg width="100%" height="100%" viewBox="0 0 7858 3344" version="1.1" xmlns="http://www.w3.org/2000/svg" xmlns:xlink="http://www.w3.org/1999/xlink" xml:space="preserve" xmlns:serif="http://www.serif.com/" style="fill-rule:evenodd;clip-rule:evenodd;stroke-linejoin:round;stroke-miterlimit:2;"><rect id="dddd" x="-0" y="-0" width="7857.03" height="3343.14" style="fill:none;"/><g><g><path d="M403.202,2495.55l0,-1515.21l1074.7,-614.084l1074.97,614.084l0,1223.9l-1074.97,614.212l-568.912,-325.142l-0,-1219.48l568.912,-325.077l569.146,325.077l0,636.888l-569.146,325.114l-63.085,-36.035l-0,-632.371l317.975,-181.767l-254.89,-145.625l-315.998,180.683l0,925.786l315.998,180.648l822.059,-469.761l-0,-930.233l-822.059,-469.614l-821.789,469.614l-0,1512.85l821.789,469.754l1327.84,-758.702l-0,-1517.42l-1327.84,-758.693l-1327.62,758.693l-0,1517.42l252.916,144.492Z" style="fill:#0164c1;fill-rule:nonzero;"/><path d="M3805.05,938.973l0,35.392l110.105,-0l-0,1235.81l-110.105,0l0,35.544l582.44,-0l-0,-35.544l-108.292,0l0,-608.452l371.606,0l0,608.452l-110.258,0l0,35.544l584.406,-0l0,-35.544l-110.256,0l0,-1235.81l110.256,-0l0,-35.392l-584.406,0l0,35.392l110.258,-0l0,578.808l-371.606,0l0,-578.808l108.292,-0l-0,-35.392l-582.44,0Zm1698.77,1306.75l647.777,-0l0,-35.544l-128.71,0l-0,-298.554l184.823,0l-0,138.085l35.396,0l-0,-345.289l-35.396,-0l-0,162.285l-184.823,0l-0,-927.729l-323.054,0l-526.332,937.106l0,35.542l505.911,0l-0,298.554l-175.592,0l0,35.544Zm-270.575,-379.017l446.167,-785.862l-0,785.862l-446.167,0Zm2243.85,-927.729l-1101.36,0l-18.756,468.55l35.552,0c52.164,-160.619 100.125,-272.237 143.673,-335.154c43.55,-62.765 105.106,-94.225 184.825,-94.225l24.198,-0l-0,1228.4l-158.663,-0l0,39.173l681.506,-0l0,-39.173l-158.793,-0l-0,-1228.4l22.368,-0c79.719,-0 140.654,30.25 183.017,90.596c42.337,60.346 90.889,173.325 145.635,338.783l35.396,0l-18.6,-468.55Z" style="fill:#070513;fill-rule:nonzero;"/></g><text x="3755px" y="2947.24px" style="font-family:'Roboto-Light', 'Roboto';font-weight:300;font-size:575px;">P<tspan x="4167.1px 4599.7px 5044.09px 5488.48px 5931.74px 6334.58px 6760.72px 7127.06px " y="2947.24px 2947.24px 2947.24px 2947.24px 2947.24px 2947.24px 2947.24px 2947.24px ">RODUKCJA</tspan></text><path d="M2008.15,1876.14l-26.369,-587.469l-503.771,-231.056l-229.038,132.85l-320.108,98.206l173.474,744.34l375.563,202.819l530.249,-359.69Z" style="fill:#fff;"/><path d="M1520.63,1153.75c-28.345,-2.754 -56.891,-2.754 -85.237,0c4.008,41.244 -14.101,66.843 -54.326,76.797c-39.812,11.492 -68.294,-1.623 -85.445,-39.345c-25.926,11.788 -50.647,26.06 -73.818,42.619c24.093,33.714 21.21,64.938 -8.649,93.67c-28.733,29.859 -59.956,32.742 -93.671,8.65c-16.558,23.17 -30.831,47.892 -42.618,73.817c37.722,17.151 50.837,45.633 39.345,85.446c-9.954,40.225 -35.553,58.333 -76.797,54.326c-2.754,28.345 -2.754,56.891 0,85.236c41.244,-4.007 66.843,14.101 76.797,54.326c11.492,39.813 -1.623,68.295 -39.345,85.446c11.787,25.925 26.06,50.647 42.618,73.817c33.715,-24.092 64.938,-21.209 93.671,8.65c29.859,28.732 32.742,59.956 8.649,93.67c23.171,16.559 47.892,30.831 73.818,42.619c17.151,-37.722 45.633,-50.837 85.445,-39.345c40.225,9.954 58.334,35.553 54.326,76.797c28.346,2.754 56.892,2.754 85.237,-0c-4.007,-41.244 14.101,-66.843 54.326,-76.797c39.813,-11.492 68.295,1.623 85.446,39.345c25.925,-11.788 50.646,-26.06 73.817,-42.619c-24.092,-33.714 -21.209,-64.938 8.649,-93.67c28.733,-29.859 59.957,-32.742 93.671,-8.65c16.558,-23.17 30.831,-47.892 42.619,-73.817c-37.722,-17.151 -50.837,-45.633 -39.345,-85.446c9.954,-40.225 35.552,-58.333 76.796,-54.326c2.755,-28.345 2.755,-56.891 0,-85.236c-41.244,4.007 -66.842,-14.101 -76.796,-54.326c-11.492,-39.813 1.623,-68.295 39.345,-85.446c-11.788,-25.925 -26.061,-50.647 -42.619,-73.817c-33.714,24.092 -64.938,21.209 -93.671,-8.65c-29.858,-28.732 -32.741,-59.956 -8.649,-93.67c-23.171,-16.559 -47.892,-30.831 -73.817,-42.619c-17.151,37.722 -45.633,50.837 -85.446,39.345c-40.225,-9.954 -58.333,-35.553 -54.326,-76.797Zm-42.618,291.879c80.976,-0 146.719,65.742 146.719,146.719c0,80.977 -65.743,146.719 -146.719,146.719c-80.977,0 -146.72,-65.742 -146.72,-146.719c0,-80.977 65.743,-146.719 146.72,-146.719Z" style="fill:#c10164;"/></g></svg>