<?xml version="1.0" encoding="UTF-8" standalone="no"?><!DOCTYPE svg PUBLIC "-//W3C//DTD SVG 1.1//EN" "http://www.w3.org/Graphics/SVG/1.1/DTD/svg11.dtd"><svg width="100%" height="100%" viewBox="0 0 988 408" version="1.1" xmlns="http://www.w3.org/2000/svg" xmlns:xlink="http://www.w3.org/1999/xlink" xml:space="preserve" xmlns:serif="http://www.serif.com/" style="fill-rule:evenodd;clip-rule:evenodd;stroke-linejoin:round;stroke-miterlimit:2;"><g id="trading-horizontal"><g><path d="M491.177,116.121l-0,4.757l14.797,-0l0,166.085l-14.797,-0l-0,4.777l78.276,-0l0,-4.777l-14.553,-0l-0,-81.772l49.941,-0l0,81.772l-14.818,-0l0,4.777l78.541,-0l-0,-4.777l-14.818,-0l-0,-166.085l14.818,-0l-0,-4.757l-78.541,0l0,4.757l14.818,-0l0,77.788l-49.941,-0l-0,-77.788l14.553,-0l0,-4.757l-78.276,0Zm228.304,175.619l87.057,-0l0,-4.777l-17.298,-0l0,-40.124l24.839,-0l0,18.558l4.757,-0l0,-46.405l-4.757,-0l0,21.81l-24.839,0l0,-124.681l-43.416,0l-70.736,125.941l0,4.777l67.991,-0l0,40.124l-23.598,-0l-0,4.777Zm-36.364,-50.938l59.962,-105.615l0,105.615l-59.962,0Zm301.56,-124.681l-148.016,0l-2.52,62.97l4.778,0c7.01,-21.586 13.456,-36.587 19.308,-45.042c5.853,-8.436 14.126,-12.664 24.84,-12.664l3.252,0l-0,165.09l-21.324,-0l0,5.265l91.591,-0l-0,-5.265l-21.341,-0l-0,-165.09l3.006,0c10.714,0 18.903,4.066 24.596,12.176c5.69,8.11 12.215,23.294 19.573,45.53l4.757,0l-2.5,-62.97Z" style="fill:#070513;fill-rule:nonzero;"/></g><text x="549.249px" y="386.02px" style="font-family:'Roboto-Light', 'Roboto';font-weight:300;font-size:77.276px;fill:#64c101;">T<tspan x="603.161px 661.3px 716.42px 776.143px 804.774px 867.026px " y="386.02px 386.02px 386.02px 386.02px 386.02px 386.02px ">RADING</tspan></text><path d="M178.424,290.41l-42.468,-22.934l-0,37.808l42.468,24.278l110.479,-63.133l0,-125.018l-110.479,-63.113l-110.444,63.113l0,203.318l110.444,63.132l178.452,-101.965l0,-203.932l-178.452,-101.964l-178.424,101.964l-0,203.932l33.99,19.419l0,-203.635l144.434,-82.529l144.469,82.529l0,164.485l-144.469,82.546l-76.459,-43.697l0,-163.891l76.459,-43.688l76.489,43.688l0,85.594l-76.489,43.693Z" style="fill:#0164c1;fill-rule:nonzero;"/><path d="M162.05,166.723l-16.542,-16.542l70.22,-1.869l-19.321,52.768l-16.542,-16.542l-54.305,33.136l-17.814,-17.815l54.304,-33.136Z" style="fill:#64c101;"/><path d="M190.404,240.749l16.136,16.939l-70.245,0.164l20.597,-52.284l16.135,16.939l55.093,-31.808l17.377,18.242l-55.093,31.808Z" style="fill:#64c101;"/></g></svg>