<?xml version="1.0" encoding="UTF-8" standalone="no"?><!DOCTYPE svg PUBLIC "-//W3C//DTD SVG 1.1//EN" "http://www.w3.org/Graphics/SVG/1.1/DTD/svg11.dtd"><svg width="100%" height="100%" viewBox="0 0 282 383" version="1.1" xmlns="http://www.w3.org/2000/svg" xmlns:xlink="http://www.w3.org/1999/xlink" xml:space="preserve" xmlns:serif="http://www.serif.com/" style="fill-rule:evenodd;clip-rule:evenodd;stroke-linejoin:round;stroke-miterlimit:2;"><g id="SvgjsG208080"><g id="SvgjsG50996"><g id="SvgjsG50997"><path d="M76.494,175.189l-0,-90.501l64.19,-36.678l64.205,36.678l0,73.101l-64.205,36.686l-33.98,-19.42l-0,-72.836l33.98,-19.418l33.993,19.418l0,38.038l-33.993,19.42l-3.768,-2.153l-0,-37.77l18.992,-10.858l-15.224,-8.696l-18.874,10.792l-0,55.294l18.874,10.79l49.099,-28.057l0,-55.562l-49.099,-28.048l-49.084,28.048l-0,90.36l49.084,28.057l79.309,-45.316l0,-90.632l-79.309,-45.315l-79.296,45.315l-0,90.632l15.106,8.631Z" style="fill:#0164c1;fill-rule:nonzero;"/></g><g id="SvgjsG50998"><path d="M30.611,273.599l-0,2.114l6.576,0l0,73.813l-6.576,0l-0,2.123l34.788,-0l-0,-2.123l-6.468,0l-0,-36.342l22.195,0l-0,36.342l-6.585,0l-0,2.123l34.905,-0l0,-2.123l-6.585,0l-0,-73.813l6.585,0l0,-2.114l-34.905,0l-0,2.114l6.585,0l-0,34.572l-22.195,-0l-0,-34.572l6.468,0l-0,-2.114l-34.788,0Zm101.464,78.05l38.69,-0l0,-2.123l-7.687,0l-0,-17.832l11.039,-0l-0,8.248l2.114,-0l-0,-20.624l-2.114,0l-0,9.693l-11.039,0l-0,-55.412l-19.296,0l-31.436,55.972l-0,2.123l30.217,-0l-0,17.832l-10.488,0l-0,2.123Zm-16.161,-22.638l26.649,-46.938l-0,46.938l-26.649,0Zm134.021,-55.412l-65.782,0l-1.12,27.986l2.123,0c3.116,-9.593 5.98,-16.26 8.582,-20.018c2.601,-3.749 6.278,-5.628 11.039,-5.628l1.445,0l-0,73.37l-9.476,0l-0,2.34l40.705,-0l-0,-2.34l-9.485,0l-0,-73.37l1.337,0c4.76,0 8.401,1.807 10.93,5.411c2.529,3.605 5.429,10.353 8.699,20.235l2.114,0l-1.111,-27.986Z" style="fill:#070513;fill-rule:nonzero;"/></g></g></g></svg>