<?xml version="1.0" encoding="UTF-8" standalone="no"?><!DOCTYPE svg PUBLIC "-//W3C//DTD SVG 1.1//EN" "http://www.w3.org/Graphics/SVG/1.1/DTD/svg11.dtd"><svg width="100%" height="100%" viewBox="0 0 886 1462" version="1.1" xmlns="http://www.w3.org/2000/svg" xmlns:xlink="http://www.w3.org/1999/xlink" xml:space="preserve" xmlns:serif="http://www.serif.com/" style="fill-rule:evenodd;clip-rule:evenodd;stroke-linejoin:round;stroke-miterlimit:2;"><path d="M0,977.972l0,8.494l26.425,0l0,296.595l-26.425,-0l0,8.53l139.785,0l0,-8.53l-25.989,-0l-0,-146.029l89.185,0l-0,146.029l-26.462,-0l0,8.53l140.257,0l0,-8.53l-26.461,-0l0,-296.595l26.461,0l0,-8.494l-140.257,0l0,8.494l26.462,0l-0,138.914l-89.185,0l-0,-138.914l25.989,0l0,-8.494l-139.785,0Zm407.705,313.619l155.466,0l0,-8.53l-30.89,-0l-0,-71.653l44.357,-0l0,33.14l8.495,0l-0,-82.869l-8.495,-0l0,38.948l-44.357,0l-0,-222.655l-77.534,0l-126.319,224.906l0,8.53l121.418,-0l0,71.653l-42.141,-0l-0,8.53Zm-64.938,-90.964l107.079,-188.607l0,188.607l-107.079,0Zm538.524,-222.655l-264.326,0l-4.501,112.452l8.532,0c12.52,-38.548 24.03,-65.337 34.481,-80.437c10.453,-15.063 25.226,-22.614 44.359,-22.614l5.807,0l0,294.817l-38.079,-0l0,9.401l163.561,0l0,-9.401l-38.11,-0l0,-294.817l5.368,0c19.133,0 33.758,7.26 43.924,21.743c10.162,14.483 21.814,41.598 34.953,81.308l8.495,0l-4.464,-112.452Z" style="fill:#070513;fill-rule:nonzero;"/><g><path d="M8.608,1419.19l-0,40.767l-8.086,0l-0,-98.109l33.826,-0c10.287,-0 18.249,2.628 23.887,7.883c5.638,5.256 8.457,12.174 8.457,20.754c-0,8.715 -2.819,15.678 -8.457,20.889c-5.638,5.211 -13.6,7.816 -23.887,7.816l-25.74,0Zm-0,-6.873l25.74,0c8.086,0 14.15,-2.055 18.193,-6.165c4.043,-4.111 6.065,-9.288 6.065,-15.532c-0,-6.289 -2.022,-11.511 -6.065,-15.666c-4.043,-4.156 -10.107,-6.233 -18.193,-6.233l-25.74,-0l-0,43.596Z" style="fill:#c10164;fill-rule:nonzero;"/><path d="M107.31,1415.62l0,44.338l-8.086,0l0,-98.042l32.681,0c10.511,0 18.575,2.302 24.19,6.907c5.615,4.604 8.423,11.331 8.423,20.181c0,5.211 -1.494,9.871 -4.481,13.982c-2.987,4.11 -7.221,7.109 -12.702,8.995c6.065,1.528 10.434,4.257 13.106,8.187c2.673,3.931 4.01,8.861 4.01,14.791l-0,9.231c-0,3.055 0.359,5.795 1.078,8.221c0.719,2.426 1.909,4.402 3.571,5.93l0,1.617l-8.221,0c-1.662,-1.617 -2.83,-3.886 -3.504,-6.806c-0.673,-2.92 -1.01,-5.952 -1.01,-9.096l-0,-8.962c-0,-6.02 -1.943,-10.77 -5.829,-14.252c-3.886,-3.481 -9.31,-5.222 -16.273,-5.222l-26.953,0Zm0,-6.873l23.651,0c8.85,0 15.319,-1.786 19.407,-5.357c4.088,-3.571 6.131,-8.389 6.131,-14.453c0,-6.469 -2.032,-11.444 -6.098,-14.926c-4.065,-3.481 -10.231,-5.222 -18.496,-5.222l-24.595,0l0,39.958Z" style="fill:#c10164;fill-rule:nonzero;"/><path d="M275.215,1418.92c-0,12.668 -3.471,22.91 -10.411,30.726c-6.941,7.817 -16.251,11.725 -27.93,11.725c-11.5,0 -20.676,-3.908 -27.526,-11.725c-6.851,-7.816 -10.276,-18.058 -10.276,-30.726l-0,-15.97c-0,-12.623 3.414,-22.865 10.242,-30.726c6.828,-7.862 15.992,-11.792 27.492,-11.792c11.68,-0 21.001,3.93 27.964,11.792c6.963,7.861 10.445,18.103 10.445,30.726l-0,15.97Zm-8.019,-16.105c-0,-10.601 -2.684,-19.136 -8.052,-25.605c-5.368,-6.469 -12.814,-9.703 -22.338,-9.703c-9.343,-0 -16.621,3.234 -21.832,9.703c-5.211,6.469 -7.816,15.004 -7.816,25.605l-0,16.105c-0,10.691 2.617,19.271 7.85,25.74c5.233,6.469 12.522,9.703 21.866,9.703c9.568,0 17.014,-3.223 22.337,-9.669c5.323,-6.446 7.985,-15.038 7.985,-25.774l-0,-16.105Z" style="fill:#c10164;fill-rule:nonzero;"/><path d="M309.903,1459.96l0,-98.109l29.918,-0c11.994,-0 21.911,3.998 29.75,11.994c7.839,7.996 11.758,18.261 11.758,30.794l-0,12.6c-0,12.534 -3.919,22.787 -11.758,30.761c-7.839,7.973 -17.756,11.96 -29.75,11.96l-29.918,0Zm8.086,-91.236l0,84.43l21.832,0c9.703,0 17.699,-3.391 23.988,-10.174c6.29,-6.784 9.434,-15.364 9.434,-25.741l0,-12.802c0,-10.243 -3.156,-18.755 -9.467,-25.539c-6.312,-6.783 -14.297,-10.174 -23.955,-10.174l-21.832,-0Z" style="fill:#c10164;fill-rule:nonzero;"/><path d="M485.489,1361.85l0,65.159c0,10.781 -3.301,19.204 -9.905,25.268c-6.603,6.065 -15.094,9.097 -25.471,9.097c-10.242,0 -18.609,-3.043 -25.1,-9.13c-6.491,-6.087 -9.737,-14.499 -9.737,-25.235l0,-65.159l8.086,-0l0,65.159c0,8.445 2.505,15.15 7.514,20.114c5.008,4.963 11.421,7.445 19.237,7.445c7.996,0 14.555,-2.47 19.676,-7.412c5.121,-4.941 7.682,-11.657 7.682,-20.147l-0,-65.159l8.018,-0Z" style="fill:#c10164;fill-rule:nonzero;"/><path d="M541.606,1413.39l-10.579,0l-0,46.562l-8.086,0l-0,-98.109l8.086,-0l-0,44.742l10.511,-0l38.543,-44.742l9.164,-0l0.135,0.337l-40.699,47.168l44.742,50.267l-0.135,0.337l-9.703,0l-41.979,-46.562Z" style="fill:#c10164;fill-rule:nonzero;"/><path d="M687.207,1429.3l0.134,0.404c0.18,9.613 -2.965,17.295 -9.433,23.045c-6.469,5.75 -14.959,8.625 -25.471,8.625c-10.916,0 -19.721,-3.942 -26.414,-11.826c-6.693,-7.883 -10.04,-18.092 -10.04,-30.625l-0,-15.97c-0,-12.488 3.347,-22.697 10.04,-30.625c6.693,-7.929 15.498,-11.893 26.414,-11.893c10.646,-0 19.17,2.807 25.572,8.422c6.401,5.616 9.512,13.342 9.332,23.18l-0.134,0.404l-7.547,0c-0,-7.906 -2.415,-14.071 -7.244,-18.496c-4.829,-4.425 -11.489,-6.637 -19.979,-6.637c-8.58,-0 -15.464,3.324 -20.653,9.972c-5.188,6.649 -7.783,15.161 -7.783,25.538l0,16.105c0,10.512 2.595,19.08 7.783,25.706c5.189,6.626 12.073,9.939 20.653,9.939c8.49,0 15.15,-2.156 19.979,-6.468c4.829,-4.313 7.244,-10.579 7.244,-18.8l7.547,-0Z" style="fill:#c10164;fill-rule:nonzero;"/><path d="M764.616,1361.85l8.086,-0l-0,69.673c-0,9.12 -2.662,16.374 -7.985,21.765c-5.323,5.391 -12.208,8.086 -20.653,8.086c-8.984,0 -16.104,-2.381 -21.36,-7.143c-5.256,-4.761 -7.772,-11.724 -7.547,-20.888l0.135,-0.404l7.547,-0c-0,7.367 1.808,12.813 5.424,16.34c3.616,3.526 8.883,5.289 15.801,5.289c5.975,0 10.894,-2.077 14.757,-6.233c3.863,-4.155 5.795,-9.759 5.795,-16.812l-0,-69.673Z" style="fill:#c10164;fill-rule:nonzero;"/><path d="M861.162,1432.6l-43.058,-0l-9.905,27.357l-8.355,0l36.049,-98.109l7.615,-0l35.78,98.109l-8.355,0l-9.771,-27.357Zm-40.497,-7.21l37.869,-0l-18.598,-52.02l-0.404,0l-18.867,52.02Z" style="fill:#c10164;fill-rule:nonzero;"/></g><g><path d="M452.547,258.915c-6.803,-0.661 -13.654,-0.661 -20.457,-0c0.962,9.898 -3.385,16.042 -13.039,18.431c-9.555,2.758 -16.39,-0.389 -20.507,-9.443c-6.222,2.829 -12.155,6.255 -17.716,10.229c5.783,8.091 5.091,15.585 -2.075,22.481c-6.896,7.166 -14.39,7.858 -22.481,2.075c-3.974,5.561 -7.4,11.495 -10.229,17.717c9.053,4.116 12.201,10.952 9.443,20.507c-2.389,9.654 -8.533,14 -18.431,13.038c-0.661,6.803 -0.661,13.654 -0,20.457c9.898,-0.962 16.042,3.384 18.431,13.038c2.758,9.555 -0.39,16.391 -9.443,20.507c2.829,6.222 6.255,12.155 10.229,17.716c8.091,-5.782 15.585,-5.09 22.481,2.076c7.166,6.896 7.858,14.389 2.075,22.481c5.561,3.974 11.494,7.399 17.716,10.228c4.117,-9.053 10.952,-12.201 20.507,-9.443c9.654,2.389 14.001,8.533 13.039,18.432c6.803,0.661 13.654,0.661 20.457,-0c-0.962,-9.899 3.384,-16.043 13.038,-18.432c9.555,-2.758 16.39,0.39 20.507,9.443c6.222,-2.829 12.155,-6.254 17.716,-10.228c-5.782,-8.092 -5.09,-15.585 2.076,-22.481c6.896,-7.166 14.389,-7.858 22.481,-2.076c3.974,-5.561 7.399,-11.494 10.228,-17.716c-9.053,-4.116 -12.201,-10.952 -9.443,-20.507c2.389,-9.654 8.533,-14 18.432,-13.038c0.661,-6.803 0.661,-13.654 -0,-20.457c-9.899,0.962 -16.043,-3.384 -18.432,-13.038c-2.758,-9.555 0.39,-16.391 9.443,-20.507c-2.829,-6.222 -6.254,-12.156 -10.228,-17.717c-8.092,5.783 -15.585,5.091 -22.481,-2.075c-7.166,-6.896 -7.858,-14.39 -2.076,-22.481c-5.561,-3.974 -11.494,-7.4 -17.716,-10.229c-4.117,9.054 -10.952,12.201 -20.507,9.443c-9.654,-2.389 -14,-8.533 -13.038,-18.431Zm-10.229,70.051c19.434,-0 35.213,15.778 35.213,35.212c-0,19.435 -15.779,35.213 -35.213,35.213c-19.434,-0 -35.213,-15.778 -35.213,-35.213c0,-19.434 15.779,-35.212 35.213,-35.212Z" style="fill:#c10164;"/><path d="M442.292,518.614l-75.839,-40.956l-0,67.517l75.839,43.355l197.294,-112.742l0,-223.256l-197.294,-112.708l-197.229,112.708l-0,363.083l197.229,112.742l318.681,-182.089l-0,-364.182l-318.681,-182.086l-318.628,182.086l-0,364.182l60.7,34.678l-0,-363.649l257.928,-147.38l257.994,147.38l-0,293.735l-257.994,147.411l-136.539,-78.034l0,-292.675l136.539,-78.019l136.595,78.019l0,152.852l-136.595,78.028Z" style="fill:#0164c1;fill-rule:nonzero;"/></g></svg>