<?xml version="1.0" encoding="UTF-8" standalone="no"?><!DOCTYPE svg PUBLIC "-//W3C//DTD SVG 1.1//EN" "http://www.w3.org/Graphics/SVG/1.1/DTD/svg11.dtd"><svg width="100%" height="100%" viewBox="0 0 1373 2252" version="1.1" xmlns="http://www.w3.org/2000/svg" xmlns:xlink="http://www.w3.org/1999/xlink" xml:space="preserve" xmlns:serif="http://www.serif.com/" style="fill-rule:evenodd;clip-rule:evenodd;stroke-linejoin:round;stroke-miterlimit:2;"><g><path d="M0,1514.21l0,13.158l40.935,0l0,459.458l-40.935,0l0,13.215l216.543,-0l0,-13.215l-40.261,0l-0,-226.214l138.158,-0l0,226.214l-40.992,0l-0,13.215l217.274,-0l0,-13.215l-40.991,0l-0,-459.458l40.991,0l0,-13.158l-217.274,-0l-0,13.158l40.992,0l0,215.193l-138.158,0l-0,-215.193l40.261,0l0,-13.158l-216.543,-0Zm631.58,485.831l240.835,-0l0,-13.215l-47.853,0l0,-110.998l68.715,-0l-0,51.338l13.16,0l-0,-128.374l-13.16,-0l-0,60.336l-68.715,-0l0,-344.918l-120.107,-0l-195.683,348.404l-0,13.214l188.091,-0l-0,110.998l-65.283,0l0,13.215Zm-100.596,-140.913l165.879,-292.174l-0,292.174l-165.879,-0Zm834.235,-344.918l-409.471,-0l-6.973,174.201l13.217,-0c19.395,-59.716 37.226,-101.215 53.416,-124.606c16.191,-23.335 39.077,-35.032 68.716,-35.032l8.996,0l0,456.704l-58.988,-0l-0,14.564l253.375,-0l-0,-14.564l-59.038,-0l0,-456.704l8.317,0c29.638,0 52.293,11.247 68.043,33.683c15.74,22.435 33.791,64.439 54.145,125.955l13.16,-0l-6.915,-174.201Z" style="fill:#070513;fill-rule:nonzero;"/><g><path d="M330.797,2118.03l-48.022,-0l-0,131.094l-11.522,-0l0,-131.094l-49.668,-0l0,-9.876l109.212,0l0,9.876Z" style="fill:#64c101;fill-rule:nonzero;"/><path d="M384.61,2185.42l-0,63.708l-11.619,-0l0,-140.873l46.958,0c15.104,0 26.69,3.308 34.758,9.924c8.068,6.616 12.102,16.282 12.102,28.998c0,7.487 -2.146,14.184 -6.438,20.09c-4.292,5.906 -10.376,10.214 -18.251,12.925c8.714,2.195 14.991,6.116 18.832,11.764c3.84,5.647 5.761,12.731 5.761,21.251l-0,13.265c-0,4.389 0.516,8.326 1.549,11.812c1.032,3.485 2.743,6.325 5.131,8.52l0,2.324l-11.812,-0c-2.388,-2.324 -4.066,-5.584 -5.034,-9.779c-0.969,-4.196 -1.453,-8.553 -1.453,-13.071l0,-12.877c0,-8.649 -2.791,-15.475 -8.375,-20.477c-5.583,-5.003 -13.377,-7.504 -23.381,-7.504l-38.728,0Zm-0,-9.875l33.983,-0c12.716,-0 22.011,-2.566 27.884,-7.697c5.874,-5.132 8.811,-12.055 8.811,-20.768c-0,-9.295 -2.921,-16.443 -8.762,-21.446c-5.842,-5.002 -14.701,-7.503 -26.577,-7.503l-35.339,-0l-0,57.414Z" style="fill:#64c101;fill-rule:nonzero;"/><path d="M596.238,2209.82l-61.868,-0l-14.232,39.309l-12.006,-0l51.798,-140.97l10.941,0l51.411,140.97l-12.005,-0l-14.039,-39.309Zm-58.189,-10.36l54.413,0l-26.722,-74.745l-0.581,0l-27.11,74.745Z" style="fill:#64c101;fill-rule:nonzero;"/><path d="M663.895,2249.12l0,-140.97l42.988,0c17.234,0 31.483,5.745 42.746,17.234c11.263,11.489 16.895,26.238 16.895,44.247l-0,18.105c-0,18.008 -5.632,32.741 -16.895,44.198c-11.263,11.457 -25.512,17.186 -42.746,17.186l-42.988,-0Zm11.619,-131.094l-0,121.315l31.369,-0c13.942,-0 25.431,-4.874 34.468,-14.62c9.036,-9.747 13.555,-22.075 13.555,-36.985l-0,-18.396c-0,-14.716 -4.535,-26.948 -13.604,-36.694c-9.068,-9.747 -20.541,-14.62 -34.419,-14.62l-31.369,-0Z" style="fill:#64c101;fill-rule:nonzero;"/><rect x="820.143" y="2108.15" width="11.618" height="140.969" style="fill:#64c101;fill-rule:nonzero;"/><path d="M994.495,2249.12l-11.618,-0l-80.07,-120.638l-0.581,0.097l0,120.541l-11.618,-0l-0,-140.97l11.618,0l80.07,120.347l0.581,-0.097l-0,-120.25l11.618,0l0,140.97Z" style="fill:#64c101;fill-rule:nonzero;"/><path d="M1150.55,2230.15c-3.098,5.099 -8.827,9.875 -17.186,14.329c-8.358,4.454 -18.896,6.681 -31.611,6.681c-16.201,-0 -29.466,-5.584 -39.793,-16.75c-10.327,-11.167 -15.491,-25.625 -15.491,-43.375l-0,-25.851c-0,-17.428 5.002,-31.628 15.007,-42.601c10.005,-10.972 22.946,-16.459 38.825,-16.459c15.297,0 27.448,4.034 36.452,12.103c9.004,8.068 13.377,18.331 13.119,30.788l-0.29,0.581l-10.65,0c-0,-9.746 -3.357,-17.782 -10.07,-24.108c-6.713,-6.326 -16.233,-9.488 -28.561,-9.488c-12.652,-0 -22.85,4.582 -30.595,13.748c-7.746,9.166 -11.619,20.913 -11.619,35.242l0,26.045c0,14.716 4.034,26.787 12.103,36.21c8.068,9.424 18.589,14.136 31.563,14.136c9.875,-0 17.944,-1.485 24.205,-4.454c6.261,-2.969 10.618,-6.422 13.07,-10.359l0,-36.114l-37.953,-0l0,-9.876l49.475,0l-0,49.572Z" style="fill:#64c101;fill-rule:nonzero;"/></g><g><path d="M686.027,803.391l-117.484,-63.446l-0,104.592l117.484,67.163l305.63,-174.651l0,-345.849l-305.63,-174.596l-305.531,174.596l-0,562.457l305.531,174.649l493.672,-282.076l-0,-564.158l-493.672,-282.072l-493.592,282.072l0,564.158l94.031,53.72l0,-563.333l399.561,-228.308l399.661,228.308l-0,455.03l-399.661,228.356l-211.515,-120.884l0,-453.388l211.515,-120.859l211.601,120.859l-0,236.787l-211.601,120.873Z" style="fill:#0164c1;fill-rule:nonzero;"/><path d="M640.731,461.224l-45.762,-45.762l194.256,-5.171l-53.45,145.977l-45.762,-45.762l-150.227,91.667l-49.282,-49.282l150.227,-91.667Z" style="fill:#64c101;"/><path d="M719.17,666.008l44.637,46.859l-194.325,0.454l56.979,-144.637l44.637,46.86l152.409,-87.993l48.071,50.464l-152.408,87.993Z" style="fill:#64c101;"/></g></g></svg>