<?xml version="1.0" encoding="UTF-8" standalone="no"?><!DOCTYPE svg PUBLIC "-//W3C//DTD SVG 1.1//EN" "http://www.w3.org/Graphics/SVG/1.1/DTD/svg11.dtd"><svg width="100%" height="100%" viewBox="0 0 988 408" version="1.1" xmlns="http://www.w3.org/2000/svg" xmlns:xlink="http://www.w3.org/1999/xlink" xml:space="preserve" xmlns:serif="http://www.serif.com/" style="fill-rule:evenodd;clip-rule:evenodd;stroke-linejoin:round;stroke-miterlimit:2;"><g id="main-horizontal"><path d="M33.99,325.315l0,-203.635l144.434,-82.529l144.469,82.529l0,164.485l-144.469,82.546l-76.459,-43.697l0,-163.891l76.459,-43.688l76.489,43.688l0,85.594l-76.489,43.693l-8.479,-4.843l0,-84.986l42.734,-24.429l-34.255,-19.571l-42.468,24.283l-0,124.42l42.468,24.278l110.479,-63.133l0,-125.018l-110.479,-63.113l-110.444,63.113l0,203.318l110.444,63.132l178.452,-101.965l0,-203.932l-178.452,-101.964l-178.424,101.964l-0,203.932l33.99,19.419Z" style="fill:#0164c1;fill-rule:nonzero;"/><path d="M491.177,116.121l-0,4.757l14.797,-0l0,166.085l-14.797,-0l-0,4.777l78.276,-0l0,-4.777l-14.553,-0l-0,-81.772l49.941,-0l0,81.772l-14.818,-0l0,4.777l78.541,-0l-0,-4.777l-14.818,-0l-0,-166.085l14.818,-0l-0,-4.757l-78.541,0l0,4.757l14.818,-0l0,77.788l-49.941,-0l-0,-77.788l14.553,-0l0,-4.757l-78.276,0Zm228.304,175.619l87.057,-0l0,-4.777l-17.298,-0l0,-40.124l24.839,-0l0,18.558l4.757,-0l0,-46.405l-4.757,-0l0,21.81l-24.839,0l0,-124.681l-43.416,0l-70.736,125.941l0,4.777l67.991,-0l0,40.124l-23.598,-0l-0,4.777Zm-36.364,-50.938l59.962,-105.615l0,105.615l-59.962,0Zm301.56,-124.681l-148.016,0l-2.52,62.97l4.778,0c7.01,-21.586 13.456,-36.587 19.308,-45.042c5.853,-8.436 14.126,-12.664 24.84,-12.664l3.252,0l-0,165.09l-21.324,-0l0,5.265l91.591,-0l-0,-5.265l-21.341,-0l-0,-165.09l3.006,0c10.714,0 18.903,4.066 24.596,12.176c5.69,8.11 12.215,23.294 19.573,45.53l4.757,0l-2.5,-62.97Z" style="fill:#070513;fill-rule:nonzero;"/></g></svg>