<?xml version="1.0" encoding="UTF-8" standalone="no"?><!DOCTYPE svg PUBLIC "-//W3C//DTD SVG 1.1//EN" "http://www.w3.org/Graphics/SVG/1.1/DTD/svg11.dtd"><svg width="100%" height="100%" viewBox="0 0 7858 3344" version="1.1" xmlns="http://www.w3.org/2000/svg" xmlns:xlink="http://www.w3.org/1999/xlink" xml:space="preserve" xmlns:serif="http://www.serif.com/" style="fill-rule:evenodd;clip-rule:evenodd;stroke-linejoin:round;stroke-miterlimit:2;"><rect id="dddd" x="-0" y="-0" width="7857.03" height="3343.14" style="fill:none;"/><g><g><path d="M403.202,2495.55l0,-1515.21l1074.7,-614.084l1074.97,614.084l0,1223.9l-1074.97,614.212l-568.912,-325.142l-0,-1219.48l568.912,-325.077l569.146,325.077l0,636.888l-569.146,325.114l-63.085,-36.035l-0,-632.371l317.975,-181.767l-254.89,-145.625l-315.998,180.683l0,925.786l315.998,180.648l822.059,-469.761l-0,-930.233l-822.059,-469.614l-821.789,469.614l-0,1512.85l821.789,469.754l1327.84,-758.702l-0,-1517.42l-1327.84,-758.693l-1327.62,758.693l-0,1517.42l252.916,144.492Z" style="fill:#0164c1;fill-rule:nonzero;"/><path d="M3805.05,938.973l0,35.392l110.105,-0l-0,1235.81l-110.105,0l0,35.544l582.44,-0l-0,-35.544l-108.292,0l0,-608.452l371.606,0l0,608.452l-110.258,0l0,35.544l584.406,-0l0,-35.544l-110.256,0l0,-1235.81l110.256,-0l0,-35.392l-584.406,0l0,35.392l110.258,-0l0,578.808l-371.606,0l0,-578.808l108.292,-0l-0,-35.392l-582.44,0Zm1698.77,1306.75l647.777,-0l0,-35.544l-128.71,0l-0,-298.554l184.823,0l-0,138.085l35.396,0l-0,-345.289l-35.396,-0l-0,162.285l-184.823,0l-0,-927.729l-323.054,0l-526.332,937.106l0,35.542l505.911,0l-0,298.554l-175.592,0l0,35.544Zm-270.575,-379.017l446.167,-785.862l-0,785.862l-446.167,0Zm2243.85,-927.729l-1101.36,0l-18.756,468.55l35.552,0c52.164,-160.619 100.125,-272.237 143.673,-335.154c43.55,-62.765 105.106,-94.225 184.825,-94.225l24.198,-0l-0,1228.4l-158.663,-0l0,39.173l681.506,-0l0,-39.173l-158.793,-0l-0,-1228.4l22.368,-0c79.719,-0 140.654,30.25 183.017,90.596c42.337,60.346 90.889,173.325 145.635,338.783l35.396,0l-18.6,-468.55Z" style="fill:#070513;fill-rule:nonzero;"/></g><text x="4237.15px" y="2947.24px" style="font-family:'Roboto-Light', 'Roboto';font-weight:300;font-size:575px;">T<tspan x="4638.3px 5070.9px 5481.04px 5925.43px 6138.47px 6601.67px " y="2947.24px 2947.24px 2947.24px 2947.24px 2947.24px 2947.24px ">RADING</tspan></text><path d="M2008.15,1876.14l-26.369,-587.469l-503.771,-231.056l-229.038,132.85l-320.108,98.206l173.474,744.34l375.563,202.819l530.249,-359.69Z" style="fill:#fff;"/><path d="M1356.07,1315.5l-123.086,-123.086l522.494,-13.909l-143.767,392.636l-123.086,-123.086l-404.067,246.557l-132.555,-132.554l404.067,-246.558Z" style="fill:#64c101;"/><path d="M1567.05,1866.31l120.062,126.038l-522.678,1.221l153.257,-389.031l120.062,126.038l409.934,-236.675l129.297,135.733l-409.934,236.676Z" style="fill:#64c101;"/></g></svg>