<?xml version="1.0" encoding="UTF-8" standalone="no"?><!DOCTYPE svg PUBLIC "-//W3C//DTD SVG 1.1//EN" "http://www.w3.org/Graphics/SVG/1.1/DTD/svg11.dtd"><svg width="100%" height="100%" viewBox="0 0 1373 2252" version="1.1" xmlns="http://www.w3.org/2000/svg" xmlns:xlink="http://www.w3.org/1999/xlink" xml:space="preserve" xmlns:serif="http://www.serif.com/" style="fill-rule:evenodd;clip-rule:evenodd;stroke-linejoin:round;stroke-miterlimit:2;"><g id="SvgjsG50996"><g id="SvgjsG50997"><path d="M285.606,899.949l0,-563.338l399.561,-228.308l399.655,228.308l-0,455.029l-399.655,228.358l-211.514,-120.883l0,-453.379l211.514,-120.871l211.595,120.871l0,236.773l-211.595,120.883l-23.454,-13.401l-0,-235.106l118.218,-67.587l-94.764,-54.13l-117.484,67.177l-0,344.186l117.484,67.164l305.625,-174.645l-0,-345.855l-305.625,-174.589l-305.531,174.589l-0,562.461l305.531,174.645l493.672,-282.077l-0,-564.153l-493.672,-282.071l-493.591,282.071l0,564.153l94.03,53.725Z" style="fill:#0164c1;fill-rule:nonzero;"/></g><g id="SvgjsG50998"><path d="M-0,1512.52l-0,13.159l40.933,0l0,459.461l-40.933,0l-0,13.215l216.544,-0l-0,-13.215l-40.262,0l0,-226.217l138.157,0l-0,226.217l-40.99,0l0,13.215l217.272,-0l0,-13.215l-40.989,0l-0,-459.461l40.989,0l0,-13.159l-217.272,0l0,13.159l40.99,0l-0,215.199l-138.157,0l0,-215.199l40.262,0l-0,-13.159l-216.544,0Zm631.579,485.835l240.832,-0l0,-13.215l-47.849,0l0,-110.998l68.714,-0l0,51.341l13.159,-0l0,-128.378l-13.159,0l0,60.336l-68.714,0l0,-344.921l-120.111,0l-195.678,348.407l-0,13.215l188.09,-0l0,110.998l-65.284,0l0,13.215Zm-100.597,-140.914l165.881,-292.173l0,292.173l-165.881,0Zm834.236,-344.921l-409.471,0l-6.972,174.204l13.215,-0c19.396,-59.714 37.224,-101.213 53.42,-124.606c16.191,-23.336 39.079,-35.032 68.714,-35.032l8.995,-0l0,456.703l-58.985,0l0,14.566l253.375,-0l0,-14.566l-59.041,0l0,-456.703l8.323,-0c29.629,-0 52.293,11.248 68.035,33.681c15.742,22.44 33.794,64.444 54.148,125.957l13.159,-0l-6.915,-174.204Z" style="fill:#070513;fill-rule:nonzero;"/></g></g><rect x="668.583" y="2248.39" width="36.506" height="2.766" style="fill:#fff;fill-opacity:0.01;"/><g id="SvgjsG208080"></g></svg>