<?xml version="1.0" encoding="UTF-8" standalone="no"?><!DOCTYPE svg PUBLIC "-//W3C//DTD SVG 1.1//EN" "http://www.w3.org/Graphics/SVG/1.1/DTD/svg11.dtd"><svg width="100%" height="100%" viewBox="0 0 1427 2354" version="1.1" xmlns="http://www.w3.org/2000/svg" xmlns:xlink="http://www.w3.org/1999/xlink" xml:space="preserve" xmlns:serif="http://www.serif.com/" style="fill-rule:evenodd;clip-rule:evenodd;stroke-linejoin:round;stroke-miterlimit:2;"><path d="M0,1575.31l0,13.682l42.565,-0l0,477.753l-42.565,-0l0,13.741l225.166,-0l-0,-13.741l-41.865,-0l0,-235.222l143.66,-0l-0,235.222l-42.625,-0l-0,13.741l225.926,-0l-0,-13.741l-42.624,-0l-0,-477.753l42.624,-0l-0,-13.682l-225.926,-0l-0,13.682l42.625,-0l-0,223.762l-143.66,-0l0,-223.762l41.865,-0l-0,-13.682l-225.166,-0Zm656.728,505.176l250.425,-0l-0,-13.741l-49.759,-0l0,-115.418l71.451,-0l0,53.382l13.684,0l-0,-133.486l-13.684,0l0,62.738l-71.451,0l0,-358.651l-124.889,-0l-203.475,362.276l-0,13.741l195.58,-0l0,115.418l-67.882,-0l0,13.741Zm-104.602,-146.525l172.484,-303.807l0,303.807l-172.484,0Zm867.453,-358.651l-425.775,-0l-7.251,181.137l13.744,-0c20.166,-62.094 38.707,-105.245 55.542,-129.567c16.836,-24.265 40.634,-36.427 71.452,-36.427l9.355,0l-0,474.889l-61.338,-0l0,15.144l263.464,-0l0,-15.144l-61.388,-0l0,-474.889l8.648,0c30.818,0 54.375,11.694 70.752,35.024c16.367,23.329 35.137,67.005 56.301,130.97l13.684,-0l-7.19,-181.137Z" style="fill:#070513;fill-rule:nonzero;"/><g><path d="M13.865,2286.02l0,65.667l-13.025,-0l0,-158.034l54.487,-0c16.571,-0 29.397,4.233 38.478,12.699c9.081,8.466 13.622,19.61 13.622,33.43c-0,14.038 -4.541,25.254 -13.622,33.648c-9.081,8.393 -21.907,12.59 -38.478,12.59l-41.462,0Zm0,-11.071l41.462,0c13.025,0 22.794,-3.31 29.306,-9.931c6.513,-6.621 9.769,-14.961 9.769,-25.019c-0,-10.13 -3.256,-18.542 -9.769,-25.235c-6.512,-6.693 -16.281,-10.04 -29.306,-10.04l-41.462,-0l0,70.225Z" style="fill:#c10164;fill-rule:nonzero;"/><path d="M172.854,2280.27l0,71.419l-13.024,-0l-0,-157.926l52.641,0c16.933,0 29.921,3.709 38.966,11.126c9.045,7.417 13.568,18.252 13.568,32.507c-0,8.394 -2.406,15.901 -7.218,22.522c-4.812,6.621 -11.632,11.451 -20.46,14.49c9.769,2.461 16.806,6.857 21.111,13.188c4.305,6.332 6.458,14.273 6.458,23.825l0,14.87c0,4.92 0.579,9.334 1.737,13.241c1.158,3.908 3.075,7.092 5.752,9.552l0,2.605l-13.241,-0c-2.678,-2.605 -4.559,-6.259 -5.644,-10.963c-1.086,-4.703 -1.629,-9.587 -1.629,-14.653l0,-14.435c0,-9.697 -3.129,-17.349 -9.388,-22.957c-6.259,-5.607 -14.997,-8.411 -26.213,-8.411l-43.416,-0Zm0,-11.071l38.098,-0c14.255,-0 24.675,-2.877 31.259,-8.629c6.585,-5.753 9.877,-13.514 9.877,-23.282c0,-10.42 -3.274,-18.434 -9.822,-24.042c-6.549,-5.608 -16.48,-8.412 -29.795,-8.412l-39.617,0l0,64.365Z" style="fill:#c10164;fill-rule:nonzero;"/><path d="M443.314,2285.59c0,20.406 -5.59,36.904 -16.769,49.494c-11.18,12.591 -26.177,18.886 -44.99,18.886c-18.524,0 -33.304,-6.295 -44.339,-18.886c-11.035,-12.59 -16.552,-29.088 -16.552,-49.494l-0,-25.724c-0,-20.333 5.499,-36.831 16.498,-49.494c10.999,-12.663 25.76,-18.995 44.284,-18.995c18.814,0 33.829,6.332 45.044,18.995c11.216,12.663 16.824,29.161 16.824,49.494l0,25.724Zm-12.916,-25.941c-0,-17.077 -4.324,-30.825 -12.971,-41.245c-8.647,-10.42 -20.64,-15.63 -35.981,-15.63c-15.051,0 -26.773,5.21 -35.167,15.63c-8.393,10.42 -12.59,24.168 -12.59,41.245l-0,25.941c-0,17.222 4.215,31.042 12.645,41.462c8.43,10.42 20.17,15.63 35.221,15.63c15.412,0 27.406,-5.192 35.981,-15.575c8.574,-10.384 12.862,-24.223 12.862,-41.517l-0,-25.941Z" style="fill:#c10164;fill-rule:nonzero;"/><path d="M499.19,2351.69l0,-158.034l48.192,-0c19.32,-0 35.294,6.44 47.92,19.32c12.627,12.88 18.941,29.414 18.941,49.603l-0,20.297c-0,20.188 -6.314,36.704 -18.941,49.548c-12.626,12.844 -28.6,19.266 -47.92,19.266l-48.192,-0Zm13.025,-146.963l0,136l35.167,0c15.63,0 28.51,-5.463 38.64,-16.389c10.131,-10.927 15.196,-24.747 15.196,-41.462l-0,-20.623c-0,-16.498 -5.084,-30.21 -15.25,-41.137c-10.167,-10.926 -23.029,-16.389 -38.586,-16.389l-35.167,-0Z" style="fill:#c10164;fill-rule:nonzero;"/><path d="M782.023,2193.66l0,104.958c0,17.366 -5.318,30.934 -15.955,40.702c-10.637,9.769 -24.313,14.653 -41.028,14.653c-16.498,0 -29.975,-4.902 -40.431,-14.707c-10.456,-9.805 -15.684,-23.354 -15.684,-40.648l-0,-104.958l13.025,-0l-0,104.958c-0,13.604 4.034,24.403 12.102,32.399c8.068,7.996 18.397,11.994 30.988,11.994c12.88,-0 23.445,-3.98 31.694,-11.94c8.249,-7.959 12.373,-18.777 12.373,-32.453l0,-104.958l12.916,-0Z" style="fill:#c10164;fill-rule:nonzero;"/><path d="M872.415,2276.69l-17.04,-0l-0,75.001l-13.025,-0l-0,-158.034l13.025,-0l-0,72.07l16.932,0l62.085,-72.07l14.761,-0l0.217,0.543l-65.558,75.977l72.071,80.971l-0.217,0.543l-15.63,-0l-67.621,-75.001Z" style="fill:#c10164;fill-rule:nonzero;"/><path d="M1106.95,2302.3l0.217,0.651c0.29,15.485 -4.775,27.859 -15.195,37.121c-10.42,9.262 -24.096,13.893 -41.028,13.893c-17.584,0 -31.766,-6.349 -42.548,-19.049c-10.781,-12.699 -16.172,-29.143 -16.172,-49.331l-0,-25.724c-0,-20.116 5.391,-36.56 16.172,-49.331c10.782,-12.772 24.964,-19.158 42.548,-19.158c17.149,0 30.879,4.523 41.191,13.568c10.311,9.045 15.322,21.491 15.032,37.338l-0.217,0.651l-12.156,-0c-0,-12.735 -3.889,-22.667 -11.668,-29.794c-7.779,-7.128 -18.506,-10.691 -32.182,-10.691c-13.821,-0 -24.91,5.354 -33.268,16.063c-8.357,10.71 -12.536,24.422 -12.536,41.137l-0,25.941c-0,16.932 4.179,30.735 12.536,41.408c8.358,10.673 19.447,16.01 33.268,16.01c13.676,-0 24.403,-3.474 32.182,-10.42c7.779,-6.947 11.668,-17.041 11.668,-30.283l12.156,0Z" style="fill:#c10164;fill-rule:nonzero;"/><path d="M1231.64,2193.66l13.025,-0l-0,112.23c-0,14.689 -4.288,26.375 -12.862,35.058c-8.575,8.684 -19.664,13.025 -33.268,13.025c-14.472,0 -25.941,-3.835 -34.407,-11.505c-8.466,-7.67 -12.518,-18.886 -12.156,-33.647l0.217,-0.652l12.156,0c0,11.867 2.913,20.641 8.738,26.321c5.825,5.681 14.309,8.521 25.452,8.521c9.624,-0 17.548,-3.347 23.771,-10.04c6.222,-6.694 9.334,-15.72 9.334,-27.081l-0,-112.23Z" style="fill:#c10164;fill-rule:nonzero;"/><path d="M1387.15,2307.62l-69.357,-0l-15.955,44.067l-13.459,-0l58.068,-158.034l12.265,-0l57.635,158.034l-13.459,-0l-15.738,-44.067Zm-65.233,-11.614l61,-0l-29.957,-83.793l-0.651,0l-30.392,83.793Z" style="fill:#c10164;fill-rule:nonzero;"/></g><g><path d="M728.959,417.059c-10.958,-1.065 -21.993,-1.065 -32.951,-0c1.549,15.944 -5.452,25.84 -21.002,29.688c-15.391,4.443 -26.402,-0.627 -33.033,-15.21c-10.022,4.557 -19.579,10.075 -28.537,16.476c9.314,13.034 8.2,25.104 -3.344,36.212c-11.107,11.543 -23.178,12.658 -36.212,3.344c-6.401,8.957 -11.919,18.515 -16.476,28.537c14.583,6.63 19.653,17.641 15.211,33.033c-3.848,15.55 -13.745,22.551 -29.689,21.001c-1.065,10.958 -1.065,21.994 -0,32.952c15.944,-1.549 25.841,5.451 29.689,21.002c4.442,15.391 -0.628,26.402 -15.211,33.033c4.557,10.022 10.075,19.579 16.476,28.537c13.034,-9.314 25.105,-8.2 36.212,3.343c11.544,11.108 12.658,23.179 3.344,36.213c8.958,6.401 18.515,11.919 28.537,16.476c6.631,-14.583 17.642,-19.654 33.033,-15.211c15.55,3.848 22.551,13.744 21.002,29.689c10.958,1.065 21.993,1.065 32.951,-0c-1.549,-15.945 5.452,-25.841 21.002,-29.689c15.391,-4.443 26.402,0.628 33.033,15.211c10.022,-4.557 19.579,-10.075 28.537,-16.476c-9.314,-13.034 -8.2,-25.105 3.344,-36.213c11.107,-11.543 23.178,-12.657 36.212,-3.343c6.401,-8.958 11.919,-18.515 16.476,-28.537c-14.583,-6.631 -19.653,-17.642 -15.211,-33.033c3.848,-15.551 13.745,-22.551 29.689,-21.002c1.065,-10.958 1.065,-21.994 0,-32.952c-15.944,1.55 -25.841,-5.451 -29.689,-21.001c-4.442,-15.392 0.628,-26.403 15.211,-33.033c-4.557,-10.022 -10.075,-19.58 -16.476,-28.537c-13.034,9.314 -25.105,8.199 -36.212,-3.344c-11.544,-11.108 -12.658,-23.178 -3.344,-36.212c-8.958,-6.401 -18.515,-11.919 -28.537,-16.476c-6.631,14.583 -17.642,19.653 -33.033,15.21c-15.55,-3.848 -22.551,-13.744 -21.002,-29.688Zm-16.476,112.837c31.305,-0 56.721,25.415 56.721,56.72c-0,31.305 -25.416,56.721 -56.721,56.721c-31.304,-0 -56.72,-25.416 -56.72,-56.721c0,-31.305 25.416,-56.72 56.72,-56.72Z" style="fill:#c10164;"/><path d="M712.442,835.38l-122.162,-65.972l-0,108.757l122.162,69.837l317.8,-181.605l-0,-359.62l-317.8,-181.549l-317.697,181.549l0,584.853l317.697,181.603l513.328,-293.308l0,-586.621l-513.328,-293.304l-513.245,293.304l-0,586.621l97.775,55.859l-0,-585.764l415.47,-237.399l415.574,237.399l0,473.148l-415.574,237.449l-219.937,-125.697l0,-471.44l219.937,-125.672l220.026,125.672l0,246.214l-220.026,125.686Z" style="fill:#0164c1;fill-rule:nonzero;"/></g></svg>