<?xml version="1.0" encoding="UTF-8" standalone="no"?><!DOCTYPE svg PUBLIC "-//W3C//DTD SVG 1.1//EN" "http://www.w3.org/Graphics/SVG/1.1/DTD/svg11.dtd"><svg width="100%" height="100%" viewBox="0 0 1373 2252" version="1.1" xmlns="http://www.w3.org/2000/svg" xmlns:xlink="http://www.w3.org/1999/xlink" xml:space="preserve" xmlns:serif="http://www.serif.com/" style="fill-rule:evenodd;clip-rule:evenodd;stroke-linejoin:round;stroke-miterlimit:2;"><g><path d="M0,1514.99l0,13.158l40.935,-0l0,459.458l-40.935,-0l0,13.215l216.543,-0l0,-13.215l-40.261,-0l-0,-226.215l138.158,0l0,226.215l-40.992,-0l-0,13.215l217.274,-0l0,-13.215l-40.991,-0l-0,-459.458l40.991,-0l0,-13.158l-217.274,-0l-0,13.158l40.992,-0l0,215.193l-138.158,0l-0,-215.193l40.261,-0l0,-13.158l-216.543,-0Zm631.58,485.831l240.835,-0l0,-13.215l-47.853,-0l0,-110.999l68.715,0l-0,51.339l13.16,-0l-0,-128.375l-13.16,0l-0,60.336l-68.715,0l0,-344.917l-120.107,-0l-195.683,348.403l-0,13.214l188.091,0l-0,110.999l-65.283,-0l0,13.215Zm-100.596,-140.914l165.879,-292.173l-0,292.173l-165.879,0Zm834.235,-344.917l-409.471,-0l-6.973,174.2l13.217,0c19.395,-59.716 37.226,-101.214 53.416,-124.606c16.191,-23.335 39.077,-35.031 68.716,-35.031l8.996,-0l0,456.704l-58.988,-0l-0,14.564l253.375,-0l-0,-14.564l-59.038,-0l0,-456.704l8.317,-0c29.638,-0 52.293,11.246 68.043,33.682c15.74,22.436 33.791,64.44 54.145,125.955l13.16,0l-6.915,-174.2Z" style="fill:#070513;fill-rule:nonzero;"/><g><path d="M15.824,2190.55l0,58.576l-11.618,-0l-0,-140.97l48.603,0c14.781,0 26.222,3.776 34.323,11.328c8.1,7.552 12.151,17.492 12.151,29.821c-0,12.522 -4.051,22.526 -12.151,30.014c-8.101,7.487 -19.542,11.231 -34.323,11.231l-36.985,-0Zm0,-9.876l36.985,0c11.619,0 20.332,-2.953 26.142,-8.859c5.809,-5.906 8.713,-13.345 8.713,-22.317c0,-9.036 -2.904,-16.54 -8.713,-22.51c-5.81,-5.971 -14.523,-8.956 -26.142,-8.956l-36.985,-0l0,62.642Z" style="fill:#c10164;fill-rule:nonzero;"/><path d="M157.645,2185.42l0,63.708l-11.618,-0l0,-140.873l46.958,0c15.103,0 26.689,3.308 34.758,9.924c8.068,6.616 12.102,16.282 12.102,28.998c0,7.487 -2.146,14.184 -6.438,20.09c-4.293,5.906 -10.376,10.214 -18.251,12.925c8.714,2.195 14.991,6.116 18.832,11.764c3.84,5.647 5.76,12.731 5.76,21.251l0,13.265c0,4.389 0.517,8.326 1.549,11.812c1.033,3.485 2.744,6.325 5.132,8.52l-0,2.324l-11.812,-0c-2.388,-2.324 -4.067,-5.584 -5.035,-9.779c-0.968,-4.196 -1.452,-8.553 -1.452,-13.071l0,-12.877c0,-8.649 -2.792,-15.475 -8.375,-20.477c-5.583,-5.003 -13.377,-7.504 -23.382,-7.504l-38.728,0Zm0,-9.875l33.984,-0c12.716,-0 22.01,-2.566 27.884,-7.697c5.874,-5.132 8.811,-12.055 8.811,-20.768c-0,-9.295 -2.921,-16.443 -8.763,-21.446c-5.841,-5.002 -14.7,-7.503 -26.576,-7.503l-35.34,-0l0,57.414Z" style="fill:#c10164;fill-rule:nonzero;"/><path d="M398.9,2190.16c0,18.202 -4.986,32.919 -14.958,44.15c-9.973,11.231 -23.35,16.847 -40.132,16.847c-16.524,-0 -29.707,-5.616 -39.551,-16.847c-9.843,-11.231 -14.765,-25.948 -14.765,-44.15l0,-22.946c0,-18.137 4.906,-32.854 14.717,-44.15c9.811,-11.295 22.978,-16.943 39.502,-16.943c16.782,0 30.176,5.648 40.18,16.943c10.005,11.296 15.007,26.013 15.007,44.15l0,22.946Zm-11.521,-23.139c-0,-15.233 -3.857,-27.497 -11.57,-36.792c-7.713,-9.295 -18.412,-13.942 -32.096,-13.942c-13.425,0 -23.882,4.647 -31.369,13.942c-7.488,9.295 -11.231,21.559 -11.231,36.792l-0,23.139c-0,15.362 3.759,27.691 11.279,36.985c7.52,9.295 17.992,13.942 31.418,13.942c13.748,0 24.447,-4.631 32.096,-13.893c7.648,-9.263 11.473,-21.607 11.473,-37.034l-0,-23.139Z" style="fill:#c10164;fill-rule:nonzero;"/><path d="M448.743,2249.12l-0,-140.97l42.988,0c17.234,0 31.482,5.745 42.746,17.234c11.263,11.489 16.895,26.238 16.895,44.247l-0,18.105c-0,18.008 -5.632,32.741 -16.895,44.198c-11.264,11.457 -25.512,17.186 -42.746,17.186l-42.988,-0Zm11.618,-131.094l0,121.315l31.37,-0c13.942,-0 25.431,-4.874 34.468,-14.62c9.036,-9.747 13.554,-22.075 13.554,-36.985l0,-18.396c0,-14.716 -4.534,-26.948 -13.603,-36.694c-9.069,-9.747 -20.542,-14.62 -34.419,-14.62l-31.37,-0Z" style="fill:#c10164;fill-rule:nonzero;"/><path d="M701.035,2108.15l0,93.625c0,15.491 -4.744,27.593 -14.232,36.307c-9.489,8.714 -21.688,13.071 -36.598,13.071c-14.717,-0 -26.738,-4.373 -36.065,-13.119c-9.327,-8.746 -13.991,-20.833 -13.991,-36.259l0,-93.625l11.619,0l-0,93.625c-0,12.134 3.598,21.768 10.795,28.9c7.197,7.133 16.411,10.699 27.642,10.699c11.489,-0 20.913,-3.55 28.271,-10.65c7.359,-7.1 11.038,-16.75 11.038,-28.949l-0,-93.625l11.521,0Z" style="fill:#c10164;fill-rule:nonzero;"/><path d="M851.957,2205.07l0.194,0.581c0.258,13.812 -4.26,24.85 -13.555,33.112c-9.294,8.262 -21.494,12.393 -36.597,12.393c-15.685,-0 -28.336,-5.664 -37.954,-16.992c-9.617,-11.328 -14.426,-25.996 -14.426,-44.005l0,-22.946c0,-17.944 4.809,-32.612 14.426,-44.004c9.618,-11.393 22.269,-17.089 37.954,-17.089c15.297,0 27.545,4.034 36.743,12.103c9.197,8.068 13.667,19.17 13.409,33.305l-0.194,0.581l-10.843,0c-0,-11.36 -3.47,-20.219 -10.408,-26.577c-6.939,-6.357 -16.508,-9.536 -28.707,-9.536c-12.329,-0 -22.22,4.776 -29.676,14.329c-7.455,9.553 -11.182,21.784 -11.182,36.695l-0,23.139c-0,15.104 3.727,27.416 11.182,36.937c7.456,9.521 17.347,14.281 29.676,14.281c12.199,-0 21.768,-3.098 28.707,-9.295c6.938,-6.196 10.408,-15.2 10.408,-27.012l10.843,-0Z" style="fill:#c10164;fill-rule:nonzero;"/><path d="M994.844,2118.03l-48.023,-0l0,131.094l-11.521,-0l-0,-131.094l-49.669,-0l0,-9.876l109.213,0l-0,9.876Z" style="fill:#c10164;fill-rule:nonzero;"/><rect x="1040.33" y="2108.15" width="11.618" height="140.969" style="fill:#c10164;fill-rule:nonzero;"/><path d="M1214.2,2190.16c-0,18.202 -4.986,32.919 -14.959,44.15c-9.972,11.231 -23.349,16.847 -40.131,16.847c-16.524,-0 -29.708,-5.616 -39.551,-16.847c-9.843,-11.231 -14.765,-25.948 -14.765,-44.15l-0,-22.946c-0,-18.137 4.905,-32.854 14.717,-44.15c9.811,-11.295 22.978,-16.943 39.502,-16.943c16.782,0 30.175,5.648 40.18,16.943c10.005,11.296 15.007,26.013 15.007,44.15l-0,22.946Zm-11.522,-23.139c0,-15.233 -3.856,-27.497 -11.569,-36.792c-7.714,-9.295 -18.412,-13.942 -32.096,-13.942c-13.426,0 -23.882,4.647 -31.37,13.942c-7.487,9.295 -11.231,21.559 -11.231,36.792l0,23.139c0,15.362 3.76,27.691 11.28,36.985c7.519,9.295 17.992,13.942 31.418,13.942c13.748,0 24.447,-4.631 32.095,-13.893c7.649,-9.263 11.473,-21.607 11.473,-37.034l0,-23.139Z" style="fill:#c10164;fill-rule:nonzero;"/><path d="M1367.93,2249.12l-11.618,-0l-80.07,-120.638l-0.581,0.097l0,120.541l-11.618,-0l-0,-140.97l11.618,0l80.07,120.347l0.581,-0.097l-0,-120.25l11.618,0l0,140.97Z" style="fill:#c10164;fill-rule:nonzero;"/></g><g><path d="M701.912,401.088c-10.539,-1.024 -21.152,-1.024 -31.69,0c1.49,15.334 -5.243,24.851 -20.198,28.552c-14.802,4.273 -25.391,-0.603 -31.767,-14.628c-9.639,4.383 -18.83,9.689 -27.445,15.845c8.958,12.535 7.886,24.143 -3.215,34.826c-10.683,11.101 -22.291,12.173 -34.826,3.215c-6.156,8.615 -11.462,17.806 -15.845,27.445c14.025,6.376 18.901,16.966 14.628,31.767c-3.701,14.955 -13.218,21.688 -28.552,20.198c-1.024,10.538 -1.024,21.151 0,31.69c15.334,-1.49 24.851,5.242 28.552,20.198c4.273,14.801 -0.603,25.391 -14.628,31.767c4.383,9.639 9.689,18.83 15.845,27.445c12.535,-8.958 24.143,-7.886 34.826,3.215c11.101,10.683 12.173,22.291 3.215,34.826c8.615,6.156 17.806,11.462 27.445,15.845c6.376,-14.025 16.965,-18.901 31.767,-14.628c14.955,3.701 21.688,13.218 20.198,28.552c10.538,1.024 21.151,1.024 31.69,-0c-1.49,-15.334 5.242,-24.851 20.198,-28.552c14.801,-4.273 25.391,0.603 31.767,14.628c9.639,-4.383 18.83,-9.689 27.445,-15.845c-8.958,-12.535 -7.886,-24.143 3.215,-34.826c10.683,-11.101 22.291,-12.173 34.826,-3.215c6.156,-8.615 11.462,-17.806 15.845,-27.445c-14.025,-6.376 -18.901,-16.966 -14.628,-31.767c3.701,-14.956 13.218,-21.688 28.552,-20.198c1.024,-10.539 1.024,-21.152 -0,-31.69c-15.334,1.49 -24.851,-5.243 -28.552,-20.198c-4.273,-14.801 0.603,-25.391 14.628,-31.767c-4.383,-9.639 -9.689,-18.83 -15.845,-27.445c-12.535,8.958 -24.143,7.886 -34.826,-3.215c-11.101,-10.683 -12.173,-22.291 -3.215,-34.826c-8.615,-6.156 -17.806,-11.462 -27.445,-15.845c-6.376,14.025 -16.966,18.901 -31.767,14.628c-14.956,-3.701 -21.688,-13.218 -20.198,-28.552Zm-15.845,108.517c30.106,-0 54.548,24.442 54.548,54.548c0,30.106 -24.442,54.548 -54.548,54.548c-30.106,0 -54.548,-24.442 -54.548,-54.548c-0,-30.106 24.442,-54.548 54.548,-54.548Z" style="fill:#c10164;"/><path d="M686.027,803.391l-117.484,-63.446l-0,104.592l117.484,67.163l305.63,-174.651l0,-345.849l-305.63,-174.596l-305.531,174.596l-0,562.457l305.531,174.649l493.672,-282.076l-0,-564.158l-493.672,-282.072l-493.592,282.072l0,564.158l94.031,53.72l0,-563.333l399.561,-228.308l399.661,228.308l-0,455.03l-399.661,228.356l-211.515,-120.884l0,-453.388l211.515,-120.859l211.601,120.859l-0,236.787l-211.601,120.873Z" style="fill:#0164c1;fill-rule:nonzero;"/></g></g></svg>